solid OpenSCAD_Model
  facet normal -1 0 0
    outer loop
      vertex 14.5 -28.1 0
      vertex 14.5 -26.6 7.25
      vertex 14.5 -26.6 0
    endloop
  endfacet
  facet normal -1 -0 0
    outer loop
      vertex 14.5 -26.6 7.25
      vertex 14.5 -28.1 0
      vertex 14.5 -28.1 7.25
    endloop
  endfacet
  facet normal -1 0 0
    outer loop
      vertex 14.5 -1.5 1.5
      vertex 14.5 -22.8 7.25
      vertex 14.5 -1.5 7.25
    endloop
  endfacet
  facet normal -1 0 0
    outer loop
      vertex 14.5 -25.1 1.5
      vertex 14.5 -22.8 7.25
      vertex 14.5 -1.5 1.5
    endloop
  endfacet
  facet normal -1 0 0
    outer loop
      vertex 14.5 -25.1 10.8
      vertex 14.5 -22.8 7.25
      vertex 14.5 -25.1 1.5
    endloop
  endfacet
  facet normal -1 0 0
    outer loop
      vertex 14.5 -22.8 7.25
      vertex 14.5 -25.1 10.8
      vertex 14.5 -22.8 10.8
    endloop
  endfacet
  facet normal 1 -0 0
    outer loop
      vertex 16 -22.8 7.25
      vertex 16 -1.5 1.5
      vertex 16 -1.5 7.25
    endloop
  endfacet
  facet normal 1 0 0
    outer loop
      vertex 16 -1.5 1.5
      vertex 16 -22.8 7.25
      vertex 16 -22.8 1.5
    endloop
  endfacet
  facet normal -1 0 0
    outer loop
      vertex 16 -1.5 21.8
      vertex 16 0 37.4
      vertex 16 0 21.8
    endloop
  endfacet
  facet normal -1 -0 0
    outer loop
      vertex 16 0 37.4
      vertex 16 -1.5 21.8
      vertex 16 -1.5 37.4
    endloop
  endfacet
  facet normal 1 0 0
    outer loop
      vertex 16 -22.8 10.8
      vertex 16 -24.8 7.25
      vertex 16 -22.8 7.25
    endloop
  endfacet
  facet normal 1 -0 0
    outer loop
      vertex 16 -26.6 10.8
      vertex 16 -24.8 7.25
      vertex 16 -22.8 10.8
    endloop
  endfacet
  facet normal 1 0 0
    outer loop
      vertex 16 -26.6 7.25
      vertex 16 -24.8 7.25
      vertex 16 -26.6 10.8
    endloop
  endfacet
  facet normal 1 0 0
    outer loop
      vertex 16 -24.8 7.25
      vertex 16 -26.6 7.25
      vertex 16 -24.8 1.5
    endloop
  endfacet
  facet normal 1 0 0
    outer loop
      vertex 16 -24.8 1.5
      vertex 16 -26.6 7.25
      vertex 16 -26.6 1.5
    endloop
  endfacet
  facet normal -1 0 0
    outer loop
      vertex 54.3 -1.5 1.5
      vertex 54.3 -18.6 6.275
      vertex 54.3 -1.5 7.25
    endloop
  endfacet
  facet normal -1 0 0
    outer loop
      vertex 54.3 -22.8 1.5
      vertex 54.3 -18.6 6.275
      vertex 54.3 -1.5 1.5
    endloop
  endfacet
  facet normal -1 -0 0
    outer loop
      vertex 54.3 -18.6 6.275
      vertex 54.3 -22.8 1.5
      vertex 54.3 -21.05 6.275
    endloop
  endfacet
  facet normal -1 0 0
    outer loop
      vertex 54.3 -22.8 7.25
      vertex 54.3 -21.05 6.275
      vertex 54.3 -22.8 1.5
    endloop
  endfacet
  facet normal -1 0 0
    outer loop
      vertex 54.3 -21.05 6.275
      vertex 54.3 -22.8 7.25
      vertex 54.3 -21.05 7.25
    endloop
  endfacet
  facet normal -1 -0 0
    outer loop
      vertex 54.3 -1.5 7.25
      vertex 54.3 -18.6 6.275
      vertex 54.3 -18.6 7.25
    endloop
  endfacet
  facet normal -1 0 0
    outer loop
      vertex 54.3 -26.6 1.5
      vertex 54.3 -24.8 7.25
      vertex 54.3 -24.8 1.5
    endloop
  endfacet
  facet normal -1 -0 0
    outer loop
      vertex 54.3 -24.8 7.25
      vertex 54.3 -26.6 1.5
      vertex 54.3 -26.6 7.25
    endloop
  endfacet
  facet normal 1 -0 0
    outer loop
      vertex 54.3 -1.5 37.4
      vertex 54.3 0 7.25
      vertex 54.3 0 37.4
    endloop
  endfacet
  facet normal 1 0 0
    outer loop
      vertex 54.3 0 7.25
      vertex 54.3 -1.5 37.4
      vertex 54.3 -1.5 7.25
    endloop
  endfacet
  facet normal 1 0 0
    outer loop
      vertex 55.8 -21.05 7.25
      vertex 55.8 -28.1 7.25
      vertex 55.8 -21.05 6.275
    endloop
  endfacet
  facet normal 1 0 0
    outer loop
      vertex 55.8 -18.6 6.275
      vertex 55.8 0 7.25
      vertex 55.8 -18.6 7.25
    endloop
  endfacet
  facet normal 1 0 0
    outer loop
      vertex 55.8 0 7.25
      vertex 55.8 -18.6 6.275
      vertex 55.8 0 0
    endloop
  endfacet
  facet normal 1 0 0
    outer loop
      vertex 55.8 -28.1 0
      vertex 55.8 -18.6 6.275
      vertex 55.8 -21.05 6.275
    endloop
  endfacet
  facet normal 1 0 0
    outer loop
      vertex 55.8 -28.1 0
      vertex 55.8 -21.05 6.275
      vertex 55.8 -28.1 7.25
    endloop
  endfacet
  facet normal 1 0 0
    outer loop
      vertex 55.8 -18.6 6.275
      vertex 55.8 -28.1 0
      vertex 55.8 0 0
    endloop
  endfacet
  facet normal 0 1 -0
    outer loop
      vertex 55.8 -21.05 6.275
      vertex 54.3 -21.05 7.25
      vertex 55.8 -21.05 7.25
    endloop
  endfacet
  facet normal 0 1 0
    outer loop
      vertex 54.3 -21.05 7.25
      vertex 55.8 -21.05 6.275
      vertex 54.3 -21.05 6.275
    endloop
  endfacet
  facet normal 0 -1 0
    outer loop
      vertex 54.3 -18.6 6.275
      vertex 55.8 -18.6 7.25
      vertex 54.3 -18.6 7.25
    endloop
  endfacet
  facet normal 0 -1 -0
    outer loop
      vertex 55.8 -18.6 7.25
      vertex 54.3 -18.6 6.275
      vertex 55.8 -18.6 6.275
    endloop
  endfacet
  facet normal -0 0 1
    outer loop
      vertex 54.3 -18.6 6.275
      vertex 55.8 -21.05 6.275
      vertex 55.8 -18.6 6.275
    endloop
  endfacet
  facet normal 0 0 1
    outer loop
      vertex 55.8 -21.05 6.275
      vertex 54.3 -18.6 6.275
      vertex 54.3 -21.05 6.275
    endloop
  endfacet
  facet normal 0 -1 0
    outer loop
      vertex 1.5 -1.5 21.8
      vertex 14.5 -1.5 7.25
      vertex 16 -1.5 21.8
    endloop
  endfacet
  facet normal 0 -1 0
    outer loop
      vertex 1.5 -1.5 1.5
      vertex 14.5 -1.5 7.25
      vertex 1.5 -1.5 21.8
    endloop
  endfacet
  facet normal 0 -1 -0
    outer loop
      vertex 14.5 -1.5 7.25
      vertex 1.5 -1.5 1.5
      vertex 14.5 -1.5 1.5
    endloop
  endfacet
  facet normal 0 -1 0
    outer loop
      vertex 16 -1.5 21.8
      vertex 54.3 -1.5 37.4
      vertex 16 -1.5 37.4
    endloop
  endfacet
  facet normal 0 -1 0
    outer loop
      vertex 16 -1.5 7.25
      vertex 16 -1.5 21.8
      vertex 14.5 -1.5 7.25
    endloop
  endfacet
  facet normal 0 -1 0
    outer loop
      vertex 54.3 -1.5 7.25
      vertex 16 -1.5 21.8
      vertex 16 -1.5 7.25
    endloop
  endfacet
  facet normal 0 -1 0
    outer loop
      vertex 16 -1.5 21.8
      vertex 54.3 -1.5 7.25
      vertex 54.3 -1.5 37.4
    endloop
  endfacet
  facet normal 0 -1 0
    outer loop
      vertex 16 -1.5 1.5
      vertex 54.3 -1.5 7.25
      vertex 16 -1.5 7.25
    endloop
  endfacet
  facet normal 0 -1 -0
    outer loop
      vertex 54.3 -1.5 7.25
      vertex 16 -1.5 1.5
      vertex 54.3 -1.5 1.5
    endloop
  endfacet
  facet normal 0 1 -0
    outer loop
      vertex 21.75 -22.8 1.5
      vertex 16 -22.8 7.25
      vertex 21.75 -22.8 7.25
    endloop
  endfacet
  facet normal 0 1 0
    outer loop
      vertex 16 -22.8 7.25
      vertex 21.75 -22.8 1.5
      vertex 16 -22.8 1.5
    endloop
  endfacet
  facet normal 0 1 -0
    outer loop
      vertex 54.3 -22.8 1.5
      vertex 48.55 -22.8 7.25
      vertex 54.3 -22.8 7.25
    endloop
  endfacet
  facet normal 0 1 0
    outer loop
      vertex 48.55 -22.8 7.25
      vertex 54.3 -22.8 1.5
      vertex 48.55 -22.8 1.5
    endloop
  endfacet
  facet normal 0 0 1
    outer loop
      vertex 54.3 -1.5 1.5
      vertex 48.55 -22.8 1.5
      vertex 54.3 -22.8 1.5
    endloop
  endfacet
  facet normal 0 0 1
    outer loop
      vertex 21.75 -24.8 1.5
      vertex 48.55 -24.8 1.5
      vertex 48.55 -22.8 1.5
    endloop
  endfacet
  facet normal 0 0 1
    outer loop
      vertex 21.75 -24.8 1.5
      vertex 48.55 -22.8 1.5
      vertex 21.75 -22.8 1.5
    endloop
  endfacet
  facet normal 0 0 1
    outer loop
      vertex 54.3 -1.5 1.5
      vertex 21.75 -22.8 1.5
      vertex 48.55 -22.8 1.5
    endloop
  endfacet
  facet normal -0 0 1
    outer loop
      vertex 16 -1.5 1.5
      vertex 21.75 -22.8 1.5
      vertex 54.3 -1.5 1.5
    endloop
  endfacet
  facet normal 0 0 1
    outer loop
      vertex 21.75 -22.8 1.5
      vertex 16 -1.5 1.5
      vertex 16 -22.8 1.5
    endloop
  endfacet
  facet normal -0 0 1
    outer loop
      vertex 48.55 -24.8 1.5
      vertex 54.3 -26.6 1.5
      vertex 54.3 -24.8 1.5
    endloop
  endfacet
  facet normal 0 0 1
    outer loop
      vertex 54.3 -26.6 1.5
      vertex 48.55 -24.8 1.5
      vertex 48.55 -26.6 1.5
    endloop
  endfacet
  facet normal 0 0 1
    outer loop
      vertex 48.55 -24.8 1.5
      vertex 21.75 -24.8 1.5
      vertex 48.55 -26.6 1.5
    endloop
  endfacet
  facet normal 0 0 1
    outer loop
      vertex 21.75 -24.8 1.5
      vertex 21.75 -26.6 1.5
      vertex 48.55 -26.6 1.5
    endloop
  endfacet
  facet normal -0 0 1
    outer loop
      vertex 16 -24.8 1.5
      vertex 21.75 -26.6 1.5
      vertex 21.75 -24.8 1.5
    endloop
  endfacet
  facet normal 0 0 1
    outer loop
      vertex 21.75 -26.6 1.5
      vertex 16 -24.8 1.5
      vertex 16 -26.6 1.5
    endloop
  endfacet
  facet normal 1 -0 0
    outer loop
      vertex 21.75 -28.1 7.25
      vertex 21.75 -26.6 1.5
      vertex 21.75 -26.6 7.25
    endloop
  endfacet
  facet normal 1 0 0
    outer loop
      vertex 21.75 -28.1 0
      vertex 21.75 -26.6 1.5
      vertex 21.75 -28.1 7.25
    endloop
  endfacet
  facet normal 1 0 0
    outer loop
      vertex 21.75 -26.6 1.5
      vertex 21.75 -28.1 0
      vertex 21.75 -26.6 0
    endloop
  endfacet
  facet normal 1 -0 0
    outer loop
      vertex 21.75 -24.8 7.25
      vertex 21.75 -22.8 1.5
      vertex 21.75 -22.8 7.25
    endloop
  endfacet
  facet normal 1 0 0
    outer loop
      vertex 21.75 -22.8 1.5
      vertex 21.75 -24.8 7.25
      vertex 21.75 -24.8 1.5
    endloop
  endfacet
  facet normal 0 -1 0
    outer loop
      vertex 14.5 -28.1 0
      vertex 21.75 -28.1 7.25
      vertex 14.5 -28.1 7.25
    endloop
  endfacet
  facet normal 0 -1 -0
    outer loop
      vertex 21.75 -28.1 7.25
      vertex 14.5 -28.1 0
      vertex 21.75 -28.1 0
    endloop
  endfacet
  facet normal 0 -1 0
    outer loop
      vertex 48.55 -28.1 0
      vertex 55.8 -28.1 7.25
      vertex 48.55 -28.1 7.25
    endloop
  endfacet
  facet normal 0 -1 -0
    outer loop
      vertex 55.8 -28.1 7.25
      vertex 48.55 -28.1 0
      vertex 55.8 -28.1 0
    endloop
  endfacet
  facet normal -1 0 0
    outer loop
      vertex 48.55 -28.1 0
      vertex 48.55 -26.6 1.5
      vertex 48.55 -26.6 0
    endloop
  endfacet
  facet normal -1 0 0
    outer loop
      vertex 48.55 -28.1 7.25
      vertex 48.55 -26.6 1.5
      vertex 48.55 -28.1 0
    endloop
  endfacet
  facet normal -1 0 0
    outer loop
      vertex 48.55 -26.6 1.5
      vertex 48.55 -28.1 7.25
      vertex 48.55 -26.6 7.25
    endloop
  endfacet
  facet normal -1 0 0
    outer loop
      vertex 48.55 -24.8 1.5
      vertex 48.55 -22.8 7.25
      vertex 48.55 -22.8 1.5
    endloop
  endfacet
  facet normal -1 -0 0
    outer loop
      vertex 48.55 -22.8 7.25
      vertex 48.55 -24.8 1.5
      vertex 48.55 -24.8 7.25
    endloop
  endfacet
  facet normal 0 -1 0
    outer loop
      vertex 21.75 -26.6 0
      vertex 48.55 -26.6 1.5
      vertex 21.75 -26.6 1.5
    endloop
  endfacet
  facet normal 0 -1 -0
    outer loop
      vertex 48.55 -26.6 1.5
      vertex 21.75 -26.6 0
      vertex 48.55 -26.6 0
    endloop
  endfacet
  facet normal 0 0 -1
    outer loop
      vertex 21.75 -28.1 0
      vertex 14.5 -28.1 0
      vertex 21.75 -26.6 0
    endloop
  endfacet
  facet normal 0 0 -1
    outer loop
      vertex 48.55 -26.6 0
      vertex 55.8 -28.1 0
      vertex 48.55 -28.1 0
    endloop
  endfacet
  facet normal 0 0 -1
    outer loop
      vertex 55.8 -28.1 0
      vertex 48.55 -26.6 0
      vertex 55.8 0 0
    endloop
  endfacet
  facet normal 0 0 -1
    outer loop
      vertex 21.75 -26.6 0
      vertex 55.8 0 0
      vertex 48.55 -26.6 0
    endloop
  endfacet
  facet normal 0 0 -1
    outer loop
      vertex 14.5 -26.6 0
      vertex 21.75 -26.6 0
      vertex 14.5 -28.1 0
    endloop
  endfacet
  facet normal 0 0 -1
    outer loop
      vertex 0 0 0
      vertex 21.75 -26.6 0
      vertex 14.5 -26.6 0
    endloop
  endfacet
  facet normal 0 0 -1
    outer loop
      vertex 0 0 0
      vertex 14.5 -26.6 0
      vertex 0 -26.6 0
    endloop
  endfacet
  facet normal 0 0 -1
    outer loop
      vertex 21.75 -26.6 0
      vertex 0 0 0
      vertex 55.8 0 0
    endloop
  endfacet
  facet normal -0 0 1
    outer loop
      vertex 16 -26.6 7.25
      vertex 21.75 -28.1 7.25
      vertex 21.75 -26.6 7.25
    endloop
  endfacet
  facet normal 0 0 1
    outer loop
      vertex 14.5 -28.1 7.25
      vertex 16 -26.6 7.25
      vertex 14.5 -26.6 7.25
    endloop
  endfacet
  facet normal 0 0 1
    outer loop
      vertex 16 -26.6 7.25
      vertex 14.5 -28.1 7.25
      vertex 21.75 -28.1 7.25
    endloop
  endfacet
  facet normal -0 0 1
    outer loop
      vertex 48.55 -22.8 7.25
      vertex 54.3 -24.8 7.25
      vertex 54.3 -22.8 7.25
    endloop
  endfacet
  facet normal 0 0 1
    outer loop
      vertex 54.3 -24.8 7.25
      vertex 48.55 -22.8 7.25
      vertex 48.55 -24.8 7.25
    endloop
  endfacet
  facet normal 0 0 1
    outer loop
      vertex 54.3 -22.8 7.25
      vertex 55.8 -21.05 7.25
      vertex 54.3 -21.05 7.25
    endloop
  endfacet
  facet normal 0 0 1
    outer loop
      vertex 54.3 -24.8 7.25
      vertex 55.8 -21.05 7.25
      vertex 54.3 -22.8 7.25
    endloop
  endfacet
  facet normal 0 0 1
    outer loop
      vertex 55.8 -21.05 7.25
      vertex 54.3 -24.8 7.25
      vertex 55.8 -28.1 7.25
    endloop
  endfacet
  facet normal -0 0 1
    outer loop
      vertex 54.3 -26.6 7.25
      vertex 55.8 -28.1 7.25
      vertex 54.3 -24.8 7.25
    endloop
  endfacet
  facet normal 0 0 1
    outer loop
      vertex 48.55 -28.1 7.25
      vertex 54.3 -26.6 7.25
      vertex 48.55 -26.6 7.25
    endloop
  endfacet
  facet normal 0 0 1
    outer loop
      vertex 54.3 -26.6 7.25
      vertex 48.55 -28.1 7.25
      vertex 55.8 -28.1 7.25
    endloop
  endfacet
  facet normal -0 0 1
    outer loop
      vertex 16 -22.8 7.25
      vertex 21.75 -24.8 7.25
      vertex 21.75 -22.8 7.25
    endloop
  endfacet
  facet normal 0 0 1
    outer loop
      vertex 21.75 -24.8 7.25
      vertex 16 -22.8 7.25
      vertex 16 -24.8 7.25
    endloop
  endfacet
  facet normal 0 0 1
    outer loop
      vertex 54.3 -1.5 7.25
      vertex 55.8 0 7.25
      vertex 54.3 0 7.25
    endloop
  endfacet
  facet normal 0 0 1
    outer loop
      vertex 55.8 0 7.25
      vertex 54.3 -1.5 7.25
      vertex 55.8 -18.6 7.25
    endloop
  endfacet
  facet normal 0 0 1
    outer loop
      vertex 55.8 -18.6 7.25
      vertex 54.3 -1.5 7.25
      vertex 54.3 -18.6 7.25
    endloop
  endfacet
  facet normal 0 -1 0
    outer loop
      vertex 14.5 -26.6 7.25
      vertex 16 -26.6 10.8
      vertex 14.5 -26.6 10.8
    endloop
  endfacet
  facet normal 0 -1 -0
    outer loop
      vertex 16 -26.6 10.8
      vertex 14.5 -26.6 7.25
      vertex 16 -26.6 7.25
    endloop
  endfacet
  facet normal 0 -1 0
    outer loop
      vertex 48.55 -24.8 1.5
      vertex 54.3 -24.8 7.25
      vertex 48.55 -24.8 7.25
    endloop
  endfacet
  facet normal 0 -1 -0
    outer loop
      vertex 54.3 -24.8 7.25
      vertex 48.55 -24.8 1.5
      vertex 54.3 -24.8 1.5
    endloop
  endfacet
  facet normal 0 -1 0
    outer loop
      vertex 16 -24.8 1.5
      vertex 21.75 -24.8 7.25
      vertex 16 -24.8 7.25
    endloop
  endfacet
  facet normal 0 -1 -0
    outer loop
      vertex 21.75 -24.8 7.25
      vertex 16 -24.8 1.5
      vertex 21.75 -24.8 1.5
    endloop
  endfacet
  facet normal 0 1 -0
    outer loop
      vertex 21.75 -26.6 1.5
      vertex 16 -26.6 7.25
      vertex 21.75 -26.6 7.25
    endloop
  endfacet
  facet normal 0 1 0
    outer loop
      vertex 16 -26.6 7.25
      vertex 21.75 -26.6 1.5
      vertex 16 -26.6 1.5
    endloop
  endfacet
  facet normal 0 1 -0
    outer loop
      vertex 54.3 -26.6 1.5
      vertex 48.55 -26.6 7.25
      vertex 54.3 -26.6 7.25
    endloop
  endfacet
  facet normal 0 1 0
    outer loop
      vertex 48.55 -26.6 7.25
      vertex 54.3 -26.6 1.5
      vertex 48.55 -26.6 1.5
    endloop
  endfacet
  facet normal 0 1 -0
    outer loop
      vertex 16 -22.8 7.25
      vertex 14.5 -22.8 10.8
      vertex 16 -22.8 10.8
    endloop
  endfacet
  facet normal 0 1 0
    outer loop
      vertex 14.5 -22.8 10.8
      vertex 16 -22.8 7.25
      vertex 14.5 -22.8 7.25
    endloop
  endfacet
  facet normal -0 0 1
    outer loop
      vertex 14.5 -1.5 7.25
      vertex 16 -22.8 7.25
      vertex 16 -1.5 7.25
    endloop
  endfacet
  facet normal 0 0 1
    outer loop
      vertex 16 -22.8 7.25
      vertex 14.5 -1.5 7.25
      vertex 14.5 -22.8 7.25
    endloop
  endfacet
  facet normal 0 0 1
    outer loop
      vertex 16 0 21.8
      vertex 1.5 -1.5 21.8
      vertex 16 -1.5 21.8
    endloop
  endfacet
  facet normal 0 0 1
    outer loop
      vertex 1.5 -1.5 21.8
      vertex 0 0 21.8
      vertex 1.5 -25.1 21.8
    endloop
  endfacet
  facet normal -0 0 1
    outer loop
      vertex 0 0 21.8
      vertex 1.5 -1.5 21.8
      vertex 16 0 21.8
    endloop
  endfacet
  facet normal -0 0 1
    outer loop
      vertex 1.5 -25.1 21.8
      vertex 12.5 -26.6 21.8
      vertex 12.5 -25.1 21.8
    endloop
  endfacet
  facet normal 0 0 1
    outer loop
      vertex 1.5 -25.1 21.8
      vertex 0 -26.6 21.8
      vertex 12.5 -26.6 21.8
    endloop
  endfacet
  facet normal 0 0 1
    outer loop
      vertex 0 -26.6 21.8
      vertex 1.5 -25.1 21.8
      vertex 0 0 21.8
    endloop
  endfacet
  facet normal 0 0 1
    outer loop
      vertex 14.5 -25.1 10.8
      vertex 16 -22.8 10.8
      vertex 14.5 -22.8 10.8
    endloop
  endfacet
  facet normal 0 0 1
    outer loop
      vertex 16 -22.8 10.8
      vertex 14.5 -25.1 10.8
      vertex 16 -26.6 10.8
    endloop
  endfacet
  facet normal 0 0 1
    outer loop
      vertex 14.5 -25.1 10.8
      vertex 14.5 -26.6 10.8
      vertex 16 -26.6 10.8
    endloop
  endfacet
  facet normal -0 0 1
    outer loop
      vertex 12.5 -25.1 10.8
      vertex 14.5 -26.6 10.8
      vertex 14.5 -25.1 10.8
    endloop
  endfacet
  facet normal 0 0 1
    outer loop
      vertex 14.5 -26.6 10.8
      vertex 12.5 -25.1 10.8
      vertex 12.5 -26.6 10.8
    endloop
  endfacet
  facet normal 0 1 0
    outer loop
      vertex 55.8 0 7.25
      vertex 55.8 0 0
      vertex 54.3 0 7.25
    endloop
  endfacet
  facet normal 0 1 0
    outer loop
      vertex 54.3 0 37.4
      vertex 16 0 21.8
      vertex 16 0 37.4
    endloop
  endfacet
  facet normal 0 1 -0
    outer loop
      vertex 54.3 0 7.25
      vertex 16 0 21.8
      vertex 54.3 0 37.4
    endloop
  endfacet
  facet normal 0 1 0
    outer loop
      vertex 55.8 0 0
      vertex 16 0 21.8
      vertex 54.3 0 7.25
    endloop
  endfacet
  facet normal 0 1 0
    outer loop
      vertex 16 0 21.8
      vertex 55.8 0 0
      vertex 0 0 0
    endloop
  endfacet
  facet normal 0 1 0
    outer loop
      vertex 16 0 21.8
      vertex 0 0 0
      vertex 0 0 21.8
    endloop
  endfacet
  facet normal 1 -0 0
    outer loop
      vertex 1.5 -25.1 21.8
      vertex 1.5 -1.5 1.5
      vertex 1.5 -1.5 21.8
    endloop
  endfacet
  facet normal 1 0 0
    outer loop
      vertex 1.5 -1.5 1.5
      vertex 1.5 -25.1 21.8
      vertex 1.5 -25.1 1.5
    endloop
  endfacet
  facet normal 0 1 0
    outer loop
      vertex 14.5 -25.1 10.8
      vertex 14.5 -25.1 1.5
      vertex 12.5 -25.1 10.8
    endloop
  endfacet
  facet normal 0 1 -0
    outer loop
      vertex 12.5 -25.1 10.8
      vertex 1.5 -25.1 21.8
      vertex 12.5 -25.1 21.8
    endloop
  endfacet
  facet normal 0 1 0
    outer loop
      vertex 1.5 -25.1 1.5
      vertex 12.5 -25.1 10.8
      vertex 14.5 -25.1 1.5
    endloop
  endfacet
  facet normal 0 1 0
    outer loop
      vertex 12.5 -25.1 10.8
      vertex 1.5 -25.1 1.5
      vertex 1.5 -25.1 21.8
    endloop
  endfacet
  facet normal -0 0 1
    outer loop
      vertex 1.5 -1.5 1.5
      vertex 14.5 -25.1 1.5
      vertex 14.5 -1.5 1.5
    endloop
  endfacet
  facet normal 0 0 1
    outer loop
      vertex 14.5 -25.1 1.5
      vertex 1.5 -1.5 1.5
      vertex 1.5 -25.1 1.5
    endloop
  endfacet
  facet normal 1 -0 0
    outer loop
      vertex 12.5 -26.6 21.8
      vertex 12.5 -25.1 10.8
      vertex 12.5 -25.1 21.8
    endloop
  endfacet
  facet normal 1 0 0
    outer loop
      vertex 12.5 -25.1 10.8
      vertex 12.5 -26.6 21.8
      vertex 12.5 -26.6 10.8
    endloop
  endfacet
  facet normal 0 -1 0
    outer loop
      vertex 0 -26.6 21.8
      vertex 12.5 -26.6 10.8
      vertex 12.5 -26.6 21.8
    endloop
  endfacet
  facet normal 0 -1 0
    outer loop
      vertex 12.5 -26.6 10.8
      vertex 14.5 -26.6 7.25
      vertex 14.5 -26.6 10.8
    endloop
  endfacet
  facet normal 0 -1 0
    outer loop
      vertex 0 -26.6 0
      vertex 12.5 -26.6 10.8
      vertex 0 -26.6 21.8
    endloop
  endfacet
  facet normal 0 -1 -0
    outer loop
      vertex 12.5 -26.6 10.8
      vertex 0 -26.6 0
      vertex 14.5 -26.6 7.25
    endloop
  endfacet
  facet normal 0 -1 -0
    outer loop
      vertex 14.5 -26.6 7.25
      vertex 0 -26.6 0
      vertex 14.5 -26.6 0
    endloop
  endfacet
  facet normal -1 0 0
    outer loop
      vertex 0 -26.6 0
      vertex 0 0 21.8
      vertex 0 0 0
    endloop
  endfacet
  facet normal -1 -0 0
    outer loop
      vertex 0 0 21.8
      vertex 0 -26.6 0
      vertex 0 -26.6 21.8
    endloop
  endfacet
  facet normal -0 0 1
    outer loop
      vertex 16 0 37.4
      vertex 54.3 -1.5 37.4
      vertex 54.3 0 37.4
    endloop
  endfacet
  facet normal 0 0 1
    outer loop
      vertex 54.3 -1.5 37.4
      vertex 16 0 37.4
      vertex 16 -1.5 37.4
    endloop
  endfacet
endsolid OpenSCAD_Model
