solid OpenSCAD_Model
  facet normal 0 -0.898778 0.438405
    outer loop
      vertex 54.4 20.1465 -41.6252
      vertex 55.9 20.4219 -41.0606
      vertex 54.4 20.4219 -41.0606
    endloop
  endfacet
  facet normal 0 -0.898778 0.438405
    outer loop
      vertex 55.9 20.4219 -41.0606
      vertex 54.4 20.1465 -41.6252
      vertex 55.9 20.1465 -41.6252
    endloop
  endfacet
  facet normal 0 -0.529956 0.848025
    outer loop
      vertex 54.4 17.2327 -44.8613
      vertex 55.9 16.7 -45.1942
      vertex 55.9 17.2327 -44.8613
    endloop
  endfacet
  facet normal 0 -0.529956 0.848025
    outer loop
      vertex 55.9 16.7 -45.1942
      vertex 54.4 17.2327 -44.8613
      vertex 54.4 16.7 -45.1942
    endloop
  endfacet
  facet normal -0 0.275709 0.961241
    outer loop
      vertex 54.4 10.0227 -46.1327
      vertex 55.9 9.41885 -45.9595
      vertex 55.9 10.0227 -46.1327
    endloop
  endfacet
  facet normal 0 0.275709 0.961241
    outer loop
      vertex 55.9 9.41885 -45.9595
      vertex 54.4 10.0227 -46.1327
      vertex 54.4 9.41885 -45.9595
    endloop
  endfacet
  facet normal 0 -0.139255 0.990257
    outer loop
      vertex 54.4 13.7628 -46.2633
      vertex 55.9 13.75 -46.2651
      vertex 55.9 13.7628 -46.2633
    endloop
  endfacet
  facet normal 0 -0.139255 0.990257
    outer loop
      vertex 55.9 13.75 -46.2651
      vertex 54.4 13.7628 -46.2633
      vertex 54.4 13.75 -46.2651
    endloop
  endfacet
  facet normal 1 0 0
    outer loop
      vertex 54.4 10.65 -43.1935
      vertex 54.4 10.6372 -46.2633
      vertex 54.4 10.65 -46.2651
    endloop
  endfacet
  facet normal 1 0 0
    outer loop
      vertex 54.4 9.41885 -45.9595
      vertex 54.4 10.65 -43.1935
      vertex 54.4 10.3459 -43.1063
    endloop
  endfacet
  facet normal 1 0 0
    outer loop
      vertex 54.4 10.65 -43.1935
      vertex 54.4 10.0227 -46.1327
      vertex 54.4 10.6372 -46.2633
    endloop
  endfacet
  facet normal 1 0 0
    outer loop
      vertex 54.4 9.41885 -45.9595
      vertex 54.4 10.3459 -43.1063
      vertex 54.4 9.95236 -42.9631
    endloop
  endfacet
  facet normal 1 0 0
    outer loop
      vertex 54.4 8.82854 -45.7447
      vertex 54.4 9.95236 -42.9631
      vertex 54.4 9.56977 -42.7928
    endloop
  endfacet
  facet normal 1 0 0
    outer loop
      vertex 54.4 10.65 -43.1935
      vertex 54.4 9.41885 -45.9595
      vertex 54.4 10.0227 -46.1327
    endloop
  endfacet
  facet normal 1 0 0
    outer loop
      vertex 54.4 8.25466 -45.4891
      vertex 54.4 9.56977 -42.7928
      vertex 54.4 9.2 -42.5962
    endloop
  endfacet
  facet normal 1 0 0
    outer loop
      vertex 54.4 7.7 -45.1942
      vertex 54.4 9.2 -42.5962
      vertex 54.4 8.84484 -42.3742
    endloop
  endfacet
  facet normal 1 0 0
    outer loop
      vertex 54.4 9.95236 -42.9631
      vertex 54.4 8.82854 -45.7447
      vertex 54.4 9.41885 -45.9595
    endloop
  endfacet
  facet normal 1 0 0
    outer loop
      vertex 54.4 7.16726 -44.8613
      vertex 54.4 8.84484 -42.3742
      vertex 54.4 8.50603 -42.1281
    endloop
  endfacet
  facet normal 1 0 0
    outer loop
      vertex 54.4 9.56977 -42.7928
      vertex 54.4 8.25466 -45.4891
      vertex 54.4 8.82854 -45.7447
    endloop
  endfacet
  facet normal 1 0 0
    outer loop
      vertex 54.4 6.65905 -44.4921
      vertex 54.4 8.50603 -42.1281
      vertex 54.4 8.18522 -41.8589
    endloop
  endfacet
  facet normal 1 0 0
    outer loop
      vertex 54.4 6.17782 -44.0883
      vertex 54.4 8.18522 -41.8589
      vertex 54.4 7.88396 -41.568
    endloop
  endfacet
  facet normal 1 0 0
    outer loop
      vertex 54.4 9.2 -42.5962
      vertex 54.4 7.7 -45.1942
      vertex 54.4 8.25466 -45.4891
    endloop
  endfacet
  facet normal 1 0 0
    outer loop
      vertex 54.4 5.72594 -43.6519
      vertex 54.4 7.88396 -41.568
      vertex 54.4 7.60373 -41.2567
    endloop
  endfacet
  facet normal 1 0 0
    outer loop
      vertex 54.4 5.3056 -43.1851
      vertex 54.4 7.60373 -41.2567
      vertex 54.4 7.3459 -40.9267
    endloop
  endfacet
  facet normal 1 0 0
    outer loop
      vertex 54.4 8.84484 -42.3742
      vertex 54.4 7.16726 -44.8613
      vertex 54.4 7.7 -45.1942
    endloop
  endfacet
  facet normal 1 0 0
    outer loop
      vertex 54.4 4.91885 -42.6901
      vertex 54.4 7.3459 -40.9267
      vertex 54.4 7.11171 -40.5795
    endloop
  endfacet
  facet normal 1 0 0
    outer loop
      vertex 54.4 4.56757 -42.1693
      vertex 54.4 7.11171 -40.5795
      vertex 54.4 6.90232 -40.2168
    endloop
  endfacet
  facet normal 1 0 0
    outer loop
      vertex 54.4 4.25347 -41.6252
      vertex 54.4 6.90232 -40.2168
      vertex 54.4 6.71873 -39.8404
    endloop
  endfacet
  facet normal 1 0 0
    outer loop
      vertex 54.4 8.50603 -42.1281
      vertex 54.4 6.65905 -44.4921
      vertex 54.4 7.16726 -44.8613
    endloop
  endfacet
  facet normal 1 0 0
    outer loop
      vertex 54.4 3.97809 -41.0606
      vertex 54.4 6.71873 -39.8404
      vertex 54.4 6.56184 -39.4521
    endloop
  endfacet
  facet normal 1 0 0
    outer loop
      vertex 54.4 3.74277 -40.4782
      vertex 54.4 6.56184 -39.4521
      vertex 54.4 6.43243 -39.0538
    endloop
  endfacet
  facet normal 1 0 0
    outer loop
      vertex 54.4 3.54865 -39.8807
      vertex 54.4 6.43243 -39.0538
      vertex 54.4 6.33111 -38.6475
    endloop
  endfacet
  facet normal 1 0 0
    outer loop
      vertex 54.4 3.39667 -39.2712
      vertex 54.4 6.33111 -38.6475
      vertex 54.4 6.25839 -38.235
    endloop
  endfacet
  facet normal 1 0 0
    outer loop
      vertex 54.4 3.28759 -38.6526
      vertex 54.4 6.25839 -38.235
      vertex 54.4 6.25471 -38.2
    endloop
  endfacet
  facet normal 1 0 0
    outer loop
      vertex 54.4 8.18522 -41.8589
      vertex 54.4 6.17782 -44.0883
      vertex 54.4 6.65905 -44.4921
    endloop
  endfacet
  facet normal 1 0 0
    outer loop
      vertex 54.4 7.88396 -41.568
      vertex 54.4 5.72594 -43.6519
      vertex 54.4 6.17782 -44.0883
    endloop
  endfacet
  facet normal 1 0 0
    outer loop
      vertex 54.4 7.60373 -41.2567
      vertex 54.4 5.3056 -43.1851
      vertex 54.4 5.72594 -43.6519
    endloop
  endfacet
  facet normal 1 0 0
    outer loop
      vertex 54.4 7.3459 -40.9267
      vertex 54.4 4.91885 -42.6901
      vertex 54.4 5.3056 -43.1851
    endloop
  endfacet
  facet normal 1 0 0
    outer loop
      vertex 54.4 7.11171 -40.5795
      vertex 54.4 4.56757 -42.1693
      vertex 54.4 4.91885 -42.6901
    endloop
  endfacet
  facet normal 1 0 0
    outer loop
      vertex 54.4 6.90232 -40.2168
      vertex 54.4 4.25347 -41.6252
      vertex 54.4 4.56757 -42.1693
    endloop
  endfacet
  facet normal 1 0 0
    outer loop
      vertex 54.4 6.71873 -39.8404
      vertex 54.4 3.97809 -41.0606
      vertex 54.4 4.25347 -41.6252
    endloop
  endfacet
  facet normal 1 0 0
    outer loop
      vertex 54.4 6.56184 -39.4521
      vertex 54.4 3.74277 -40.4782
      vertex 54.4 3.97809 -41.0606
    endloop
  endfacet
  facet normal 1 0 0
    outer loop
      vertex 54.4 6.43243 -39.0538
      vertex 54.4 3.54865 -39.8807
      vertex 54.4 3.74277 -40.4782
    endloop
  endfacet
  facet normal 1 0 0
    outer loop
      vertex 54.4 6.33111 -38.6475
      vertex 54.4 3.39667 -39.2712
      vertex 54.4 3.54865 -39.8807
    endloop
  endfacet
  facet normal 1 0 0
    outer loop
      vertex 54.4 6.25839 -38.235
      vertex 54.4 3.28759 -38.6526
      vertex 54.4 3.39667 -39.2712
    endloop
  endfacet
  facet normal 1 0 -0
    outer loop
      vertex 54.4 3.28759 -38.6526
      vertex 54.4 6.25471 -38.2
      vertex 54.4 3.24002 -38.2
    endloop
  endfacet
  facet normal 1 -0 0
    outer loop
      vertex 54.4 18.1453 -38.2
      vertex 54.4 21.1124 -38.6526
      vertex 54.4 21.16 -38.2
    endloop
  endfacet
  facet normal 1 0 0
    outer loop
      vertex 54.4 21.1124 -38.6526
      vertex 54.4 18.1416 -38.235
      vertex 54.4 21.0033 -39.2712
    endloop
  endfacet
  facet normal 1 0 0
    outer loop
      vertex 54.4 21.0033 -39.2712
      vertex 54.4 18.0689 -38.6475
      vertex 54.4 20.8514 -39.8807
    endloop
  endfacet
  facet normal 1 -0 0
    outer loop
      vertex 54.4 17.9676 -39.0538
      vertex 54.4 20.8514 -39.8807
      vertex 54.4 18.0689 -38.6475
    endloop
  endfacet
  facet normal 1 -0 0
    outer loop
      vertex 54.4 17.8382 -39.4521
      vertex 54.4 20.6572 -40.4782
      vertex 54.4 17.9676 -39.0538
    endloop
  endfacet
  facet normal 1 0 0
    outer loop
      vertex 54.4 20.6572 -40.4782
      vertex 54.4 17.8382 -39.4521
      vertex 54.4 20.4219 -41.0606
    endloop
  endfacet
  facet normal 1 0 0
    outer loop
      vertex 54.4 20.4219 -41.0606
      vertex 54.4 17.6813 -39.8404
      vertex 54.4 20.1465 -41.6252
    endloop
  endfacet
  facet normal 1 -0 0
    outer loop
      vertex 54.4 17.4977 -40.2168
      vertex 54.4 20.1465 -41.6252
      vertex 54.4 17.6813 -39.8404
    endloop
  endfacet
  facet normal 1 -0 0
    outer loop
      vertex 54.4 17.2883 -40.5795
      vertex 54.4 19.8324 -42.1693
      vertex 54.4 17.4977 -40.2168
    endloop
  endfacet
  facet normal 1 0 0
    outer loop
      vertex 54.4 19.8324 -42.1693
      vertex 54.4 17.2883 -40.5795
      vertex 54.4 19.4812 -42.6901
    endloop
  endfacet
  facet normal 1 0 0
    outer loop
      vertex 54.4 21.1124 -38.6526
      vertex 54.4 18.1453 -38.2
      vertex 54.4 18.1416 -38.235
    endloop
  endfacet
  facet normal 1 0 0
    outer loop
      vertex 54.4 21.0033 -39.2712
      vertex 54.4 18.1416 -38.235
      vertex 54.4 18.0689 -38.6475
    endloop
  endfacet
  facet normal 1 0 0
    outer loop
      vertex 54.4 20.8514 -39.8807
      vertex 54.4 17.9676 -39.0538
      vertex 54.4 20.6572 -40.4782
    endloop
  endfacet
  facet normal 1 -0 0
    outer loop
      vertex 54.4 17.6813 -39.8404
      vertex 54.4 20.4219 -41.0606
      vertex 54.4 17.8382 -39.4521
    endloop
  endfacet
  facet normal 1 0 0
    outer loop
      vertex 54.4 20.1465 -41.6252
      vertex 54.4 17.4977 -40.2168
      vertex 54.4 19.8324 -42.1693
    endloop
  endfacet
  facet normal 1 -0 0
    outer loop
      vertex 54.4 17.0541 -40.9267
      vertex 54.4 19.4812 -42.6901
      vertex 54.4 17.2883 -40.5795
    endloop
  endfacet
  facet normal 1 0 0
    outer loop
      vertex 54.4 19.4812 -42.6901
      vertex 54.4 17.0541 -40.9267
      vertex 54.4 19.0944 -43.1851
    endloop
  endfacet
  facet normal 1 -0 0
    outer loop
      vertex 54.4 16.7963 -41.2567
      vertex 54.4 19.0944 -43.1851
      vertex 54.4 17.0541 -40.9267
    endloop
  endfacet
  facet normal 1 0 0
    outer loop
      vertex 54.4 19.0944 -43.1851
      vertex 54.4 16.7963 -41.2567
      vertex 54.4 18.6741 -43.6519
    endloop
  endfacet
  facet normal 1 -0 0
    outer loop
      vertex 54.4 16.516 -41.568
      vertex 54.4 18.6741 -43.6519
      vertex 54.4 16.7963 -41.2567
    endloop
  endfacet
  facet normal 1 0 0
    outer loop
      vertex 54.4 18.6741 -43.6519
      vertex 54.4 16.516 -41.568
      vertex 54.4 18.2222 -44.0883
    endloop
  endfacet
  facet normal 1 -0 0
    outer loop
      vertex 54.4 16.2148 -41.8589
      vertex 54.4 18.2222 -44.0883
      vertex 54.4 16.516 -41.568
    endloop
  endfacet
  facet normal 1 0 0
    outer loop
      vertex 54.4 18.2222 -44.0883
      vertex 54.4 16.2148 -41.8589
      vertex 54.4 17.741 -44.4921
    endloop
  endfacet
  facet normal 1 -0 0
    outer loop
      vertex 54.4 15.894 -42.1281
      vertex 54.4 17.741 -44.4921
      vertex 54.4 16.2148 -41.8589
    endloop
  endfacet
  facet normal 1 0 0
    outer loop
      vertex 54.4 17.741 -44.4921
      vertex 54.4 15.894 -42.1281
      vertex 54.4 17.2327 -44.8613
    endloop
  endfacet
  facet normal 1 -0 0
    outer loop
      vertex 54.4 15.5552 -42.3742
      vertex 54.4 17.2327 -44.8613
      vertex 54.4 15.894 -42.1281
    endloop
  endfacet
  facet normal 1 0 0
    outer loop
      vertex 54.4 17.2327 -44.8613
      vertex 54.4 15.5552 -42.3742
      vertex 54.4 16.7 -45.1942
    endloop
  endfacet
  facet normal 1 -0 0
    outer loop
      vertex 54.4 15.2 -42.5962
      vertex 54.4 16.7 -45.1942
      vertex 54.4 15.5552 -42.3742
    endloop
  endfacet
  facet normal 1 0 0
    outer loop
      vertex 54.4 16.7 -45.1942
      vertex 54.4 15.2 -42.5962
      vertex 54.4 16.1453 -45.4891
    endloop
  endfacet
  facet normal 1 -0 0
    outer loop
      vertex 54.4 14.8302 -42.7928
      vertex 54.4 16.1453 -45.4891
      vertex 54.4 15.2 -42.5962
    endloop
  endfacet
  facet normal 1 0 0
    outer loop
      vertex 54.4 16.1453 -45.4891
      vertex 54.4 14.8302 -42.7928
      vertex 54.4 15.5715 -45.7447
    endloop
  endfacet
  facet normal 1 -0 0
    outer loop
      vertex 54.4 14.4476 -42.9631
      vertex 54.4 15.5715 -45.7447
      vertex 54.4 14.8302 -42.7928
    endloop
  endfacet
  facet normal 1 0 0
    outer loop
      vertex 54.4 15.5715 -45.7447
      vertex 54.4 14.4476 -42.9631
      vertex 54.4 14.9812 -45.9595
    endloop
  endfacet
  facet normal 1 -0 0
    outer loop
      vertex 54.4 14.0541 -43.1063
      vertex 54.4 14.9812 -45.9595
      vertex 54.4 14.4476 -42.9631
    endloop
  endfacet
  facet normal 1 -0 0
    outer loop
      vertex 54.4 13.75 -43.1935
      vertex 54.4 14.9812 -45.9595
      vertex 54.4 14.0541 -43.1063
    endloop
  endfacet
  facet normal 1 0 0
    outer loop
      vertex 54.4 14.9812 -45.9595
      vertex 54.4 13.75 -43.1935
      vertex 54.4 14.3773 -46.1327
    endloop
  endfacet
  facet normal 1 0 0
    outer loop
      vertex 54.4 14.3773 -46.1327
      vertex 54.4 13.75 -43.1935
      vertex 54.4 13.7628 -46.2633
    endloop
  endfacet
  facet normal 1 0 0
    outer loop
      vertex 54.4 13.7628 -46.2633
      vertex 54.4 13.75 -43.1935
      vertex 54.4 13.75 -46.2651
    endloop
  endfacet
  facet normal -0 0.207887 0.978153
    outer loop
      vertex 54.4 10.6372 -46.2633
      vertex 55.9 10.0227 -46.1327
      vertex 55.9 10.6372 -46.2633
    endloop
  endfacet
  facet normal 0 0.207887 0.978153
    outer loop
      vertex 55.9 10.0227 -46.1327
      vertex 54.4 10.6372 -46.2633
      vertex 54.4 10.0227 -46.1327
    endloop
  endfacet
  facet normal 0 -0.694663 0.719336
    outer loop
      vertex 54.4 18.6741 -43.6519
      vertex 55.9 18.2222 -44.0883
      vertex 55.9 18.6741 -43.6519
    endloop
  endfacet
  facet normal 0 -0.694663 0.719336
    outer loop
      vertex 55.9 18.2222 -44.0883
      vertex 54.4 18.6741 -43.6519
      vertex 54.4 18.2222 -44.0883
    endloop
  endfacet
  facet normal 0 0.89879 0.438379
    outer loop
      vertex 55.9 4.25347 -41.6252
      vertex 54.4 3.97809 -41.0606
      vertex 55.9 3.97809 -41.0606
    endloop
  endfacet
  facet normal 0 0.89879 0.438379
    outer loop
      vertex 54.4 3.97809 -41.0606
      vertex 55.9 4.25347 -41.6252
      vertex 54.4 4.25347 -41.6252
    endloop
  endfacet
  facet normal -0 0.642788 0.766044
    outer loop
      vertex 54.4 6.65905 -44.4921
      vertex 55.9 6.17782 -44.0883
      vertex 55.9 6.65905 -44.4921
    endloop
  endfacet
  facet normal 0 0.642788 0.766044
    outer loop
      vertex 55.9 6.17782 -44.0883
      vertex 54.4 6.65905 -44.4921
      vertex 54.4 6.17782 -44.0883
    endloop
  endfacet
  facet normal 0 -0.97032 0.241824
    outer loop
      vertex 54.4 20.8514 -39.8807
      vertex 55.9 21.0033 -39.2712
      vertex 54.4 21.0033 -39.2712
    endloop
  endfacet
  facet normal 0 -0.97032 0.241824
    outer loop
      vertex 55.9 21.0033 -39.2712
      vertex 54.4 20.8514 -39.8807
      vertex 55.9 20.8514 -39.8807
    endloop
  endfacet
  facet normal 0 -0.341948 0.939719
    outer loop
      vertex 54.4 15.5715 -45.7447
      vertex 55.9 14.9812 -45.9595
      vertex 55.9 15.5715 -45.7447
    endloop
  endfacet
  facet normal 0 -0.341948 0.939719
    outer loop
      vertex 55.9 14.9812 -45.9595
      vertex 54.4 15.5715 -45.7447
      vertex 54.4 14.9812 -45.9595
    endloop
  endfacet
  facet normal 0 -0.207887 0.978153
    outer loop
      vertex 54.4 14.3773 -46.1327
      vertex 55.9 13.7628 -46.2633
      vertex 55.9 14.3773 -46.1327
    endloop
  endfacet
  facet normal 0 -0.207887 0.978153
    outer loop
      vertex 55.9 13.7628 -46.2633
      vertex 54.4 14.3773 -46.1327
      vertex 54.4 13.7628 -46.2633
    endloop
  endfacet
  facet normal 0 -0.642811 0.766025
    outer loop
      vertex 54.4 18.2222 -44.0883
      vertex 55.9 17.741 -44.4921
      vertex 55.9 18.2222 -44.0883
    endloop
  endfacet
  facet normal 0 -0.642811 0.766025
    outer loop
      vertex 55.9 17.741 -44.4921
      vertex 54.4 18.2222 -44.0883
      vertex 54.4 17.741 -44.4921
    endloop
  endfacet
  facet normal 0 -0.994515 0.104593
    outer loop
      vertex 54.4 21.1124 -38.6526
      vertex 55.9 21.16 -38.2
      vertex 54.4 21.16 -38.2
    endloop
  endfacet
  facet normal 0 -0.994515 0.104593
    outer loop
      vertex 55.9 21.16 -38.2
      vertex 54.4 21.1124 -38.6526
      vertex 55.9 21.1124 -38.6526
    endloop
  endfacet
  facet normal 0 -0.86605 0.499957
    outer loop
      vertex 54.4 19.8324 -42.1693
      vertex 55.9 20.1465 -41.6252
      vertex 54.4 20.1465 -41.6252
    endloop
  endfacet
  facet normal 0 -0.86605 0.499957
    outer loop
      vertex 55.9 20.1465 -41.6252
      vertex 54.4 19.8324 -42.1693
      vertex 55.9 19.8324 -42.1693
    endloop
  endfacet
  facet normal 0 0.927175 0.374627
    outer loop
      vertex 55.9 3.97809 -41.0606
      vertex 54.4 3.74277 -40.4782
      vertex 55.9 3.74277 -40.4782
    endloop
  endfacet
  facet normal 0 0.927175 0.374627
    outer loop
      vertex 54.4 3.74277 -40.4782
      vertex 55.9 3.97809 -41.0606
      vertex 54.4 3.97809 -41.0606
    endloop
  endfacet
  facet normal -0 0.694679 0.71932
    outer loop
      vertex 54.4 6.17782 -44.0883
      vertex 55.9 5.72594 -43.6519
      vertex 55.9 6.17782 -44.0883
    endloop
  endfacet
  facet normal 0 0.694679 0.71932
    outer loop
      vertex 55.9 5.72594 -43.6519
      vertex 54.4 6.17782 -44.0883
      vertex 54.4 5.72594 -43.6519
    endloop
  endfacet
  facet normal 0 -0.984801 0.173685
    outer loop
      vertex 54.4 21.0033 -39.2712
      vertex 55.9 21.1124 -38.6526
      vertex 54.4 21.1124 -38.6526
    endloop
  endfacet
  facet normal 0 -0.984801 0.173685
    outer loop
      vertex 55.9 21.1124 -38.6526
      vertex 54.4 21.0033 -39.2712
      vertex 55.9 21.0033 -39.2712
    endloop
  endfacet
  facet normal 0 0.788 0.615675
    outer loop
      vertex 55.9 5.3056 -43.1851
      vertex 54.4 4.91885 -42.6901
      vertex 55.9 4.91885 -42.6901
    endloop
  endfacet
  facet normal 0 0.788 0.615675
    outer loop
      vertex 54.4 4.91885 -42.6901
      vertex 55.9 5.3056 -43.1851
      vertex 54.4 5.3056 -43.1851
    endloop
  endfacet
  facet normal 0 -0.587679 0.809094
    outer loop
      vertex 54.4 17.741 -44.4921
      vertex 55.9 17.2327 -44.8613
      vertex 55.9 17.741 -44.4921
    endloop
  endfacet
  facet normal 0 -0.587679 0.809094
    outer loop
      vertex 55.9 17.2327 -44.8613
      vertex 54.4 17.741 -44.4921
      vertex 54.4 17.2327 -44.8613
    endloop
  endfacet
  facet normal 0 -0.787962 0.615724
    outer loop
      vertex 54.4 19.0944 -43.1851
      vertex 55.9 19.4812 -42.6901
      vertex 54.4 19.4812 -42.6901
    endloop
  endfacet
  facet normal 0 -0.787962 0.615724
    outer loop
      vertex 55.9 19.4812 -42.6901
      vertex 54.4 19.0944 -43.1851
      vertex 55.9 19.0944 -43.1851
    endloop
  endfacet
  facet normal -0 0.341942 0.939721
    outer loop
      vertex 54.4 9.41885 -45.9595
      vertex 55.9 8.82854 -45.7447
      vertex 55.9 9.41885 -45.9595
    endloop
  endfacet
  facet normal 0 0.341942 0.939721
    outer loop
      vertex 55.9 8.82854 -45.7447
      vertex 54.4 9.41885 -45.9595
      vertex 54.4 8.82854 -45.7447
    endloop
  endfacet
  facet normal -0 0.587748 0.809044
    outer loop
      vertex 54.4 7.16726 -44.8613
      vertex 55.9 6.65905 -44.4921
      vertex 55.9 7.16726 -44.8613
    endloop
  endfacet
  facet normal 0 0.587748 0.809044
    outer loop
      vertex 55.9 6.65905 -44.4921
      vertex 54.4 7.16726 -44.8613
      vertex 54.4 6.65905 -44.4921
    endloop
  endfacet
  facet normal 0 -0.275688 0.961247
    outer loop
      vertex 54.4 14.9812 -45.9595
      vertex 55.9 14.3773 -46.1327
      vertex 55.9 14.9812 -45.9595
    endloop
  endfacet
  facet normal 0 -0.275688 0.961247
    outer loop
      vertex 55.9 14.3773 -46.1327
      vertex 54.4 14.9812 -45.9595
      vertex 54.4 14.3773 -46.1327
    endloop
  endfacet
  facet normal 0 0.951066 0.308989
    outer loop
      vertex 55.9 3.74277 -40.4782
      vertex 54.4 3.54865 -39.8807
      vertex 55.9 3.54865 -39.8807
    endloop
  endfacet
  facet normal 0 0.951066 0.308989
    outer loop
      vertex 54.4 3.54865 -39.8807
      vertex 55.9 3.74277 -40.4782
      vertex 54.4 3.74277 -40.4782
    endloop
  endfacet
  facet normal 0 -0.951028 0.309104
    outer loop
      vertex 54.4 20.6572 -40.4782
      vertex 55.9 20.8514 -39.8807
      vertex 54.4 20.8514 -39.8807
    endloop
  endfacet
  facet normal 0 -0.951028 0.309104
    outer loop
      vertex 55.9 20.8514 -39.8807
      vertex 54.4 20.6572 -40.4782
      vertex 55.9 20.6572 -40.4782
    endloop
  endfacet
  facet normal -0 0.139255 0.990257
    outer loop
      vertex 54.4 10.65 -46.2651
      vertex 55.9 10.6372 -46.2633
      vertex 55.9 10.65 -46.2651
    endloop
  endfacet
  facet normal 0 0.139255 0.990257
    outer loop
      vertex 55.9 10.6372 -46.2633
      vertex 54.4 10.65 -46.2651
      vertex 54.4 10.6372 -46.2633
    endloop
  endfacet
  facet normal 0 -0.406906 0.91347
    outer loop
      vertex 54.4 16.1453 -45.4891
      vertex 55.9 15.5715 -45.7447
      vertex 55.9 16.1453 -45.4891
    endloop
  endfacet
  facet normal 0 -0.406906 0.91347
    outer loop
      vertex 55.9 15.5715 -45.7447
      vertex 54.4 16.1453 -45.4891
      vertex 54.4 15.5715 -45.7447
    endloop
  endfacet
  facet normal 0 -0.743152 0.669123
    outer loop
      vertex 54.4 18.6741 -43.6519
      vertex 55.9 19.0944 -43.1851
      vertex 54.4 19.0944 -43.1851
    endloop
  endfacet
  facet normal 0 -0.743152 0.669123
    outer loop
      vertex 55.9 19.0944 -43.1851
      vertex 54.4 18.6741 -43.6519
      vertex 55.9 18.6741 -43.6519
    endloop
  endfacet
  facet normal 0 0.74312 0.669158
    outer loop
      vertex 55.9 5.72594 -43.6519
      vertex 54.4 5.3056 -43.1851
      vertex 55.9 5.3056 -43.1851
    endloop
  endfacet
  facet normal 0 0.74312 0.669158
    outer loop
      vertex 54.4 5.3056 -43.1851
      vertex 55.9 5.72594 -43.6519
      vertex 54.4 5.72594 -43.6519
    endloop
  endfacet
  facet normal 0 -0.8291 0.559101
    outer loop
      vertex 54.4 19.4812 -42.6901
      vertex 55.9 19.8324 -42.1693
      vertex 54.4 19.8324 -42.1693
    endloop
  endfacet
  facet normal 0 -0.8291 0.559101
    outer loop
      vertex 55.9 19.8324 -42.1693
      vertex 54.4 19.4812 -42.6901
      vertex 55.9 19.4812 -42.6901
    endloop
  endfacet
  facet normal 0 -0.927187 0.3746
    outer loop
      vertex 54.4 20.4219 -41.0606
      vertex 55.9 20.6572 -40.4782
      vertex 54.4 20.6572 -40.4782
    endloop
  endfacet
  facet normal 0 -0.927187 0.3746
    outer loop
      vertex 55.9 20.6572 -40.4782
      vertex 54.4 20.4219 -41.0606
      vertex 55.9 20.4219 -41.0606
    endloop
  endfacet
  facet normal 0 -0.469423 0.882973
    outer loop
      vertex 54.4 16.7 -45.1942
      vertex 55.9 16.1453 -45.4891
      vertex 55.9 16.7 -45.1942
    endloop
  endfacet
  facet normal 0 -0.469423 0.882973
    outer loop
      vertex 55.9 16.1453 -45.4891
      vertex 54.4 16.7 -45.1942
      vertex 54.4 16.1453 -45.4891
    endloop
  endfacet
  facet normal 0 0.994522 0.104528
    outer loop
      vertex 55.9 3.28759 -38.6526
      vertex 54.4 3.24002 -38.2
      vertex 55.9 3.24002 -38.2
    endloop
  endfacet
  facet normal 0 0.994522 0.104528
    outer loop
      vertex 54.4 3.24002 -38.2
      vertex 55.9 3.28759 -38.6526
      vertex 54.4 3.28759 -38.6526
    endloop
  endfacet
  facet normal 0 0.829041 0.559188
    outer loop
      vertex 55.9 4.91885 -42.6901
      vertex 54.4 4.56757 -42.1693
      vertex 55.9 4.56757 -42.1693
    endloop
  endfacet
  facet normal 0 0.829041 0.559188
    outer loop
      vertex 54.4 4.56757 -42.1693
      vertex 55.9 4.91885 -42.6901
      vertex 54.4 4.91885 -42.6901
    endloop
  endfacet
  facet normal -0 0.529927 0.848043
    outer loop
      vertex 54.4 7.7 -45.1942
      vertex 55.9 7.16726 -44.8613
      vertex 55.9 7.7 -45.1942
    endloop
  endfacet
  facet normal 0 0.529927 0.848043
    outer loop
      vertex 55.9 7.16726 -44.8613
      vertex 54.4 7.7 -45.1942
      vertex 54.4 7.16726 -44.8613
    endloop
  endfacet
  facet normal -0 0.406859 0.913491
    outer loop
      vertex 54.4 8.82854 -45.7447
      vertex 55.9 8.25466 -45.4891
      vertex 55.9 8.82854 -45.7447
    endloop
  endfacet
  facet normal 0 0.406859 0.913491
    outer loop
      vertex 55.9 8.25466 -45.4891
      vertex 54.4 8.82854 -45.7447
      vertex 54.4 8.25466 -45.4891
    endloop
  endfacet
  facet normal -0 0.469449 0.882959
    outer loop
      vertex 54.4 8.25466 -45.4891
      vertex 55.9 7.7 -45.1942
      vertex 55.9 8.25466 -45.4891
    endloop
  endfacet
  facet normal 0 0.469449 0.882959
    outer loop
      vertex 55.9 7.7 -45.1942
      vertex 54.4 8.25466 -45.4891
      vertex 54.4 7.7 -45.1942
    endloop
  endfacet
  facet normal 0 0.97029 0.241944
    outer loop
      vertex 55.9 3.54865 -39.8807
      vertex 54.4 3.39667 -39.2712
      vertex 55.9 3.39667 -39.2712
    endloop
  endfacet
  facet normal 0 0.97029 0.241944
    outer loop
      vertex 54.4 3.39667 -39.2712
      vertex 55.9 3.54865 -39.8807
      vertex 54.4 3.54865 -39.8807
    endloop
  endfacet
  facet normal 0 0.984807 0.173655
    outer loop
      vertex 55.9 3.39667 -39.2712
      vertex 54.4 3.28759 -38.6526
      vertex 55.9 3.28759 -38.6526
    endloop
  endfacet
  facet normal 0 0.984807 0.173655
    outer loop
      vertex 54.4 3.28759 -38.6526
      vertex 55.9 3.39667 -39.2712
      vertex 54.4 3.39667 -39.2712
    endloop
  endfacet
  facet normal 0 0.86605 0.499957
    outer loop
      vertex 55.9 4.56757 -42.1693
      vertex 54.4 4.25347 -41.6252
      vertex 55.9 4.25347 -41.6252
    endloop
  endfacet
  facet normal 0 0.86605 0.499957
    outer loop
      vertex 54.4 4.25347 -41.6252
      vertex 55.9 4.56757 -42.1693
      vertex 54.4 4.56757 -42.1693
    endloop
  endfacet
  facet normal 0 -0.927178 -0.37462
    outer loop
      vertex 54.4 6.71873 -39.8404
      vertex 55.9 6.56184 -39.4521
      vertex 54.4 6.56184 -39.4521
    endloop
  endfacet
  facet normal 0 -0.927178 -0.37462
    outer loop
      vertex 55.9 6.56184 -39.4521
      vertex 54.4 6.71873 -39.8404
      vertex 55.9 6.71873 -39.8404
    endloop
  endfacet
  facet normal 0 -0.469453 -0.882958
    outer loop
      vertex 54.4 9.2 -42.5962
      vertex 55.9 9.56977 -42.7928
      vertex 55.9 9.2 -42.5962
    endloop
  endfacet
  facet normal -0 -0.469453 -0.882958
    outer loop
      vertex 55.9 9.56977 -42.7928
      vertex 54.4 9.2 -42.5962
      vertex 54.4 9.56977 -42.7928
    endloop
  endfacet
  facet normal 0 0.642811 -0.766025
    outer loop
      vertex 54.4 15.894 -42.1281
      vertex 55.9 16.2148 -41.8589
      vertex 55.9 15.894 -42.1281
    endloop
  endfacet
  facet normal 0 0.642811 -0.766025
    outer loop
      vertex 55.9 16.2148 -41.8589
      vertex 54.4 15.894 -42.1281
      vertex 54.4 16.2148 -41.8589
    endloop
  endfacet
  facet normal 0 0.970297 -0.241917
    outer loop
      vertex 55.9 17.9676 -39.0538
      vertex 54.4 18.0689 -38.6475
      vertex 55.9 18.0689 -38.6475
    endloop
  endfacet
  facet normal 0 0.970297 -0.241917
    outer loop
      vertex 54.4 18.0689 -38.6475
      vertex 55.9 17.9676 -39.0538
      vertex 54.4 17.9676 -39.0538
    endloop
  endfacet
  facet normal 0 0.275639 -0.961261
    outer loop
      vertex 54.4 13.75 -43.1935
      vertex 55.9 14.0541 -43.1063
      vertex 55.9 13.75 -43.1935
    endloop
  endfacet
  facet normal 0 0.275639 -0.961261
    outer loop
      vertex 55.9 14.0541 -43.1063
      vertex 54.4 13.75 -43.1935
      vertex 54.4 14.0541 -43.1063
    endloop
  endfacet
  facet normal 0 0.984822 -0.173567
    outer loop
      vertex 55.9 18.0689 -38.6475
      vertex 54.4 18.1416 -38.235
      vertex 55.9 18.1416 -38.235
    endloop
  endfacet
  facet normal 0 0.984822 -0.173567
    outer loop
      vertex 54.4 18.1416 -38.235
      vertex 55.9 18.0689 -38.6475
      vertex 54.4 18.0689 -38.6475
    endloop
  endfacet
  facet normal 0 0.74314 -0.669136
    outer loop
      vertex 55.9 16.516 -41.568
      vertex 54.4 16.7963 -41.2567
      vertex 55.9 16.7963 -41.2567
    endloop
  endfacet
  facet normal 0 0.74314 -0.669136
    outer loop
      vertex 54.4 16.7963 -41.2567
      vertex 55.9 16.516 -41.568
      vertex 54.4 16.516 -41.568
    endloop
  endfacet
  facet normal 0 0.694701 -0.719299
    outer loop
      vertex 54.4 16.2148 -41.8589
      vertex 55.9 16.516 -41.568
      vertex 55.9 16.2148 -41.8589
    endloop
  endfacet
  facet normal 0 0.694701 -0.719299
    outer loop
      vertex 55.9 16.516 -41.568
      vertex 54.4 16.2148 -41.8589
      vertex 54.4 16.516 -41.568
    endloop
  endfacet
  facet normal 0 -0.788004 -0.61567
    outer loop
      vertex 54.4 7.60373 -41.2567
      vertex 55.9 7.3459 -40.9267
      vertex 54.4 7.3459 -40.9267
    endloop
  endfacet
  facet normal 0 -0.788004 -0.61567
    outer loop
      vertex 55.9 7.3459 -40.9267
      vertex 54.4 7.60373 -41.2567
      vertex 55.9 7.60373 -41.2567
    endloop
  endfacet
  facet normal 0 -0.898787 -0.438386
    outer loop
      vertex 54.4 6.90232 -40.2168
      vertex 55.9 6.71873 -39.8404
      vertex 54.4 6.71873 -39.8404
    endloop
  endfacet
  facet normal 0 -0.898787 -0.438386
    outer loop
      vertex 55.9 6.71873 -39.8404
      vertex 54.4 6.90232 -40.2168
      vertex 55.9 6.90232 -40.2168
    endloop
  endfacet
  facet normal 0 -0.642799 -0.766035
    outer loop
      vertex 54.4 8.18522 -41.8589
      vertex 55.9 8.50603 -42.1281
      vertex 55.9 8.18522 -41.8589
    endloop
  endfacet
  facet normal -0 -0.642799 -0.766035
    outer loop
      vertex 55.9 8.50603 -42.1281
      vertex 54.4 8.18522 -41.8589
      vertex 54.4 8.50603 -42.1281
    endloop
  endfacet
  facet normal 0 0.469423 -0.882973
    outer loop
      vertex 54.4 14.8302 -42.7928
      vertex 55.9 15.2 -42.5962
      vertex 55.9 14.8302 -42.7928
    endloop
  endfacet
  facet normal 0 0.469423 -0.882973
    outer loop
      vertex 55.9 15.2 -42.5962
      vertex 54.4 14.8302 -42.7928
      vertex 54.4 15.2 -42.5962
    endloop
  endfacet
  facet normal 0 0.92717 -0.374641
    outer loop
      vertex 55.9 17.6813 -39.8404
      vertex 54.4 17.8382 -39.4521
      vertex 55.9 17.8382 -39.4521
    endloop
  endfacet
  facet normal 0 0.92717 -0.374641
    outer loop
      vertex 54.4 17.8382 -39.4521
      vertex 55.9 17.6813 -39.8404
      vertex 54.4 17.6813 -39.8404
    endloop
  endfacet
  facet normal 0 -0.970286 -0.241962
    outer loop
      vertex 54.4 6.43243 -39.0538
      vertex 55.9 6.33111 -38.6475
      vertex 54.4 6.33111 -38.6475
    endloop
  endfacet
  facet normal 0 -0.970286 -0.241962
    outer loop
      vertex 55.9 6.33111 -38.6475
      vertex 54.4 6.43243 -39.0538
      vertex 55.9 6.43243 -39.0538
    endloop
  endfacet
  facet normal 0 0.866031 -0.499991
    outer loop
      vertex 55.9 17.2883 -40.5795
      vertex 54.4 17.4977 -40.2168
      vertex 55.9 17.4977 -40.2168
    endloop
  endfacet
  facet normal 0 0.866031 -0.499991
    outer loop
      vertex 54.4 17.4977 -40.2168
      vertex 55.9 17.2883 -40.5795
      vertex 54.4 17.2883 -40.5795
    endloop
  endfacet
  facet normal 0 -0.829037 -0.559194
    outer loop
      vertex 54.4 7.3459 -40.9267
      vertex 55.9 7.11171 -40.5795
      vertex 54.4 7.11171 -40.5795
    endloop
  endfacet
  facet normal 0 -0.829037 -0.559194
    outer loop
      vertex 55.9 7.11171 -40.5795
      vertex 54.4 7.3459 -40.9267
      vertex 55.9 7.3459 -40.9267
    endloop
  endfacet
  facet normal 0 -0.530042 -0.847971
    outer loop
      vertex 54.4 8.84484 -42.3742
      vertex 55.9 9.2 -42.5962
      vertex 55.9 8.84484 -42.3742
    endloop
  endfacet
  facet normal -0 -0.530042 -0.847971
    outer loop
      vertex 55.9 9.2 -42.5962
      vertex 54.4 8.84484 -42.3742
      vertex 54.4 9.2 -42.5962
    endloop
  endfacet
  facet normal 0 -0.694629 -0.719368
    outer loop
      vertex 54.4 7.88396 -41.568
      vertex 55.9 8.18522 -41.8589
      vertex 55.9 7.88396 -41.568
    endloop
  endfacet
  facet normal -0 -0.694629 -0.719368
    outer loop
      vertex 55.9 8.18522 -41.8589
      vertex 54.4 7.88396 -41.568
      vertex 54.4 8.18522 -41.8589
    endloop
  endfacet
  facet normal 0 0.587703 -0.809077
    outer loop
      vertex 54.4 15.5552 -42.3742
      vertex 55.9 15.894 -42.1281
      vertex 55.9 15.5552 -42.3742
    endloop
  endfacet
  facet normal 0 0.587703 -0.809077
    outer loop
      vertex 55.9 15.894 -42.1281
      vertex 54.4 15.5552 -42.3742
      vertex 54.4 15.894 -42.1281
    endloop
  endfacet
  facet normal 0 -0.984814 -0.173614
    outer loop
      vertex 54.4 6.33111 -38.6475
      vertex 55.9 6.25839 -38.235
      vertex 54.4 6.25839 -38.235
    endloop
  endfacet
  facet normal 0 -0.984814 -0.173614
    outer loop
      vertex 55.9 6.25839 -38.235
      vertex 54.4 6.33111 -38.6475
      vertex 55.9 6.33111 -38.6475
    endloop
  endfacet
  facet normal 0 0.994459 -0.105128
    outer loop
      vertex 55.9 18.1416 -38.235
      vertex 54.4 18.1453 -38.2
      vertex 55.9 18.1453 -38.2
    endloop
  endfacet
  facet normal 0 0.994459 -0.105128
    outer loop
      vertex 54.4 18.1453 -38.2
      vertex 55.9 18.1416 -38.235
      vertex 54.4 18.1416 -38.235
    endloop
  endfacet
  facet normal 0 0.406648 -0.913585
    outer loop
      vertex 54.4 14.4476 -42.9631
      vertex 55.9 14.8302 -42.7928
      vertex 55.9 14.4476 -42.9631
    endloop
  endfacet
  facet normal 0 0.406648 -0.913585
    outer loop
      vertex 55.9 14.8302 -42.7928
      vertex 54.4 14.4476 -42.9631
      vertex 54.4 14.8302 -42.7928
    endloop
  endfacet
  facet normal 0 -0.275639 -0.961261
    outer loop
      vertex 54.4 10.3459 -43.1063
      vertex 55.9 10.65 -43.1935
      vertex 55.9 10.3459 -43.1063
    endloop
  endfacet
  facet normal -0 -0.275639 -0.961261
    outer loop
      vertex 55.9 10.65 -43.1935
      vertex 54.4 10.3459 -43.1063
      vertex 54.4 10.65 -43.1935
    endloop
  endfacet
  facet normal 0 0.529999 -0.847998
    outer loop
      vertex 54.4 15.2 -42.5962
      vertex 55.9 15.5552 -42.3742
      vertex 55.9 15.2 -42.5962
    endloop
  endfacet
  facet normal 0 0.529999 -0.847998
    outer loop
      vertex 55.9 15.5552 -42.3742
      vertex 54.4 15.2 -42.5962
      vertex 54.4 15.5552 -42.3742
    endloop
  endfacet
  facet normal 0 0.898778 -0.438405
    outer loop
      vertex 55.9 17.4977 -40.2168
      vertex 54.4 17.6813 -39.8404
      vertex 55.9 17.6813 -39.8404
    endloop
  endfacet
  facet normal 0 0.898778 -0.438405
    outer loop
      vertex 54.4 17.6813 -39.8404
      vertex 55.9 17.4977 -40.2168
      vertex 54.4 17.4977 -40.2168
    endloop
  endfacet
  facet normal 0 -0.587692 -0.809085
    outer loop
      vertex 54.4 8.50603 -42.1281
      vertex 55.9 8.84484 -42.3742
      vertex 55.9 8.50603 -42.1281
    endloop
  endfacet
  facet normal -0 -0.587692 -0.809085
    outer loop
      vertex 55.9 8.84484 -42.3742
      vertex 54.4 8.50603 -42.1281
      vertex 54.4 8.84484 -42.3742
    endloop
  endfacet
  facet normal 0 -0.95106 -0.309005
    outer loop
      vertex 54.4 6.56184 -39.4521
      vertex 55.9 6.43243 -39.0538
      vertex 54.4 6.43243 -39.0538
    endloop
  endfacet
  facet normal 0 -0.95106 -0.309005
    outer loop
      vertex 55.9 6.43243 -39.0538
      vertex 54.4 6.56184 -39.4521
      vertex 55.9 6.56184 -39.4521
    endloop
  endfacet
  facet normal 0 0.951067 -0.308983
    outer loop
      vertex 55.9 17.8382 -39.4521
      vertex 54.4 17.9676 -39.0538
      vertex 55.9 17.9676 -39.0538
    endloop
  endfacet
  facet normal 0 0.951067 -0.308983
    outer loop
      vertex 54.4 17.9676 -39.0538
      vertex 55.9 17.8382 -39.4521
      vertex 54.4 17.8382 -39.4521
    endloop
  endfacet
  facet normal 0 0.829026 -0.55921
    outer loop
      vertex 55.9 17.0541 -40.9267
      vertex 54.4 17.2883 -40.5795
      vertex 55.9 17.2883 -40.5795
    endloop
  endfacet
  facet normal 0 0.829026 -0.55921
    outer loop
      vertex 54.4 17.2883 -40.5795
      vertex 55.9 17.0541 -40.9267
      vertex 54.4 17.0541 -40.9267
    endloop
  endfacet
  facet normal 0 0.788039 -0.615626
    outer loop
      vertex 55.9 16.7963 -41.2567
      vertex 54.4 17.0541 -40.9267
      vertex 55.9 17.0541 -40.9267
    endloop
  endfacet
  facet normal 0 0.788039 -0.615626
    outer loop
      vertex 54.4 17.0541 -40.9267
      vertex 55.9 16.7963 -41.2567
      vertex 54.4 16.7963 -41.2567
    endloop
  endfacet
  facet normal 0 -0.341942 -0.939721
    outer loop
      vertex 54.4 9.95236 -42.9631
      vertex 55.9 10.3459 -43.1063
      vertex 55.9 9.95236 -42.9631
    endloop
  endfacet
  facet normal -0 -0.341942 -0.939721
    outer loop
      vertex 55.9 10.3459 -43.1063
      vertex 54.4 9.95236 -42.9631
      vertex 54.4 10.3459 -43.1063
    endloop
  endfacet
  facet normal 0 0.341973 -0.93971
    outer loop
      vertex 54.4 14.0541 -43.1063
      vertex 55.9 14.4476 -42.9631
      vertex 55.9 14.0541 -43.1063
    endloop
  endfacet
  facet normal 0 0.341973 -0.93971
    outer loop
      vertex 55.9 14.4476 -42.9631
      vertex 54.4 14.0541 -43.1063
      vertex 54.4 14.4476 -42.9631
    endloop
  endfacet
  facet normal 0 -0.406657 -0.913581
    outer loop
      vertex 54.4 9.56977 -42.7928
      vertex 55.9 9.95236 -42.9631
      vertex 55.9 9.56977 -42.7928
    endloop
  endfacet
  facet normal -0 -0.406657 -0.913581
    outer loop
      vertex 55.9 9.95236 -42.9631
      vertex 54.4 9.56977 -42.7928
      vertex 54.4 9.95236 -42.9631
    endloop
  endfacet
  facet normal 0 -0.743223 -0.669044
    outer loop
      vertex 54.4 7.88396 -41.568
      vertex 55.9 7.60373 -41.2567
      vertex 54.4 7.60373 -41.2567
    endloop
  endfacet
  facet normal 0 -0.743223 -0.669044
    outer loop
      vertex 55.9 7.60373 -41.2567
      vertex 54.4 7.88396 -41.568
      vertex 55.9 7.88396 -41.568
    endloop
  endfacet
  facet normal 0 -0.866041 -0.499973
    outer loop
      vertex 54.4 7.11171 -40.5795
      vertex 55.9 6.90232 -40.2168
      vertex 54.4 6.90232 -40.2168
    endloop
  endfacet
  facet normal 0 -0.866041 -0.499973
    outer loop
      vertex 55.9 6.90232 -40.2168
      vertex 54.4 7.11171 -40.5795
      vertex 55.9 7.11171 -40.5795
    endloop
  endfacet
  facet normal 0 -0.994518 -0.104566
    outer loop
      vertex 54.4 6.25839 -38.235
      vertex 55.9 6.25471 -38.2
      vertex 54.4 6.25471 -38.2
    endloop
  endfacet
  facet normal 0 -0.994518 -0.104566
    outer loop
      vertex 55.9 6.25471 -38.2
      vertex 54.4 6.25839 -38.235
      vertex 55.9 6.25839 -38.235
    endloop
  endfacet
  facet normal 0 1 -0
    outer loop
      vertex 55.9 13.75 -46.2651
      vertex 54.4 13.75 -43.1935
      vertex 55.9 13.75 -43.1935
    endloop
  endfacet
  facet normal 0 1 0
    outer loop
      vertex 54.4 13.75 -43.1935
      vertex 55.9 13.75 -46.2651
      vertex 54.4 13.75 -46.2651
    endloop
  endfacet
  facet normal 0 -1 0
    outer loop
      vertex 54.4 10.65 -46.2651
      vertex 55.9 10.65 -43.1935
      vertex 54.4 10.65 -43.1935
    endloop
  endfacet
  facet normal 0 -1 -0
    outer loop
      vertex 55.9 10.65 -43.1935
      vertex 54.4 10.65 -46.2651
      vertex 55.9 10.65 -46.2651
    endloop
  endfacet
  facet normal 0 0 -1
    outer loop
      vertex 54.4 18.1453 -38.2
      vertex 55.9 21.16 -38.2
      vertex 55.9 18.1453 -38.2
    endloop
  endfacet
  facet normal -0 0 -1
    outer loop
      vertex 55.9 21.16 -38.2
      vertex 54.4 18.1453 -38.2
      vertex 54.4 21.16 -38.2
    endloop
  endfacet
  facet normal 0 0 -1
    outer loop
      vertex 54.4 3.24002 -38.2
      vertex 55.9 6.25471 -38.2
      vertex 55.9 3.24002 -38.2
    endloop
  endfacet
  facet normal -0 0 -1
    outer loop
      vertex 55.9 6.25471 -38.2
      vertex 54.4 3.24002 -38.2
      vertex 54.4 6.25471 -38.2
    endloop
  endfacet
  facet normal -1 0 0
    outer loop
      vertex 14.5 26.7 -53.2
      vertex 14.5 28.2 -45.95
      vertex 14.5 28.2 -53.2
    endloop
  endfacet
  facet normal -1 -0 0
    outer loop
      vertex 14.5 28.2 -45.95
      vertex 14.5 26.7 -53.2
      vertex 14.5 26.7 -45.95
    endloop
  endfacet
  facet normal -1 0 0
    outer loop
      vertex 14.5 25.2 -51.7
      vertex 14.5 22.9 -45.95
      vertex 14.5 25.2 -21.8
    endloop
  endfacet
  facet normal -1 0 0
    outer loop
      vertex 14.5 25.2 -51.7
      vertex 14.5 14.65 -46.2
      vertex 14.5 22.9 -45.95
    endloop
  endfacet
  facet normal -1 0 0
    outer loop
      vertex 14.5 1.5 -51.7
      vertex 14.5 14.65 -46.2
      vertex 14.5 25.2 -51.7
    endloop
  endfacet
  facet normal -1 -0 0
    outer loop
      vertex 14.5 14.65 -46.2
      vertex 14.5 1.5 -51.7
      vertex 14.5 9.75 -46.2
    endloop
  endfacet
  facet normal -1 0 0
    outer loop
      vertex 14.5 1.5 -45.95
      vertex 14.5 9.75 -46.2
      vertex 14.5 1.5 -51.7
    endloop
  endfacet
  facet normal -1 0 0
    outer loop
      vertex 14.5 9.75 -46.2
      vertex 14.5 1.5 -45.95
      vertex 14.5 9.75 -45.95
    endloop
  endfacet
  facet normal -1 -0 0
    outer loop
      vertex 14.5 25.2 -21.8
      vertex 14.5 22.9 -45.95
      vertex 14.5 22.9 -21.8
    endloop
  endfacet
  facet normal -1 -0 0
    outer loop
      vertex 14.5 22.9 -45.95
      vertex 14.5 14.65 -46.2
      vertex 14.5 14.65 -45.95
    endloop
  endfacet
  facet normal 0 -1 0
    outer loop
      vertex 14.5 14.65 -46.2
      vertex 16 14.65 -45.95
      vertex 14.5 14.65 -45.95
    endloop
  endfacet
  facet normal 0 -1 -0
    outer loop
      vertex 16 14.65 -45.95
      vertex 14.5 14.65 -46.2
      vertex 16 14.65 -46.2
    endloop
  endfacet
  facet normal 1 0 0
    outer loop
      vertex 16 9.75 -45.95
      vertex 16 1.5 -45.95
      vertex 16 9.75 -46.2
    endloop
  endfacet
  facet normal 1 0 0
    outer loop
      vertex 16 14.65 -46.2
      vertex 16 22.9 -45.95
      vertex 16 14.65 -45.95
    endloop
  endfacet
  facet normal 1 0 0
    outer loop
      vertex 16 22.9 -45.95
      vertex 16 14.65 -46.2
      vertex 16 22.9 -51.7
    endloop
  endfacet
  facet normal 1 -0 0
    outer loop
      vertex 16 9.75 -46.2
      vertex 16 22.9 -51.7
      vertex 16 14.65 -46.2
    endloop
  endfacet
  facet normal 1 0 0
    outer loop
      vertex 16 1.5 -51.7
      vertex 16 9.75 -46.2
      vertex 16 1.5 -45.95
    endloop
  endfacet
  facet normal 1 0 0
    outer loop
      vertex 16 9.75 -46.2
      vertex 16 1.5 -51.7
      vertex 16 22.9 -51.7
    endloop
  endfacet
  facet normal 1 0 0
    outer loop
      vertex 16 24.9 -45.95
      vertex 16 26.7 -45.95
      vertex 16 26.7 -21.8
    endloop
  endfacet
  facet normal 1 0 0
    outer loop
      vertex 16 26.7 -45.95
      vertex 16 24.9 -45.95
      vertex 16 26.7 -51.7
    endloop
  endfacet
  facet normal 1 -0 0
    outer loop
      vertex 16 22.9 -21.8
      vertex 16 24.9 -45.95
      vertex 16 26.7 -21.8
    endloop
  endfacet
  facet normal 1 0 0
    outer loop
      vertex 16 24.9 -45.95
      vertex 16 22.9 -21.8
      vertex 16 22.9 -45.95
    endloop
  endfacet
  facet normal 1 0 0
    outer loop
      vertex 16 26.7 -51.7
      vertex 16 24.9 -45.95
      vertex 16 24.9 -51.7
    endloop
  endfacet
  facet normal 1 -0 0
    outer loop
      vertex 16 0 -21.8
      vertex 16 1.5 -37.4
      vertex 16 1.5 -21.8
    endloop
  endfacet
  facet normal 1 0 0
    outer loop
      vertex 16 1.5 -37.4
      vertex 16 0 -21.8
      vertex 16 0 -37.4
    endloop
  endfacet
  facet normal -0 0 1
    outer loop
      vertex 14.5 14.65 -46.2
      vertex 16 9.75 -46.2
      vertex 16 14.65 -46.2
    endloop
  endfacet
  facet normal 0 0 1
    outer loop
      vertex 16 9.75 -46.2
      vertex 14.5 14.65 -46.2
      vertex 14.5 9.75 -46.2
    endloop
  endfacet
  facet normal 0 1 -0
    outer loop
      vertex 16 9.75 -46.2
      vertex 14.5 9.75 -45.95
      vertex 16 9.75 -45.95
    endloop
  endfacet
  facet normal 0 1 0
    outer loop
      vertex 14.5 9.75 -45.95
      vertex 16 9.75 -46.2
      vertex 14.5 9.75 -46.2
    endloop
  endfacet
  facet normal -1 0 0
    outer loop
      vertex 54.4 22.9 -51.7
      vertex 54.4 1.5 -51.7
      vertex 54.4 22.9 -45.95
    endloop
  endfacet
  facet normal -1 0 0
    outer loop
      vertex 54.4 24.9 -45.95
      vertex 54.4 26.7 -45.95
      vertex 54.4 26.7 -51.7
    endloop
  endfacet
  facet normal -1 0 0
    outer loop
      vertex 54.4 24.9 -45.95
      vertex 54.4 26.7 -51.7
      vertex 54.4 24.9 -51.7
    endloop
  endfacet
  facet normal -1 0 0
    outer loop
      vertex 54.4 26.7 -45.95
      vertex 54.4 24.9 -45.95
      vertex 54.4 26.7 -37.4
    endloop
  endfacet
  facet normal -1 0 0
    outer loop
      vertex 54.4 22.9 -45.95
      vertex 54.4 26.7 -37.4
      vertex 54.4 24.9 -45.95
    endloop
  endfacet
  facet normal -1 0 0
    outer loop
      vertex 54.4 1.5 -37.4
      vertex 54.4 22.9 -45.95
      vertex 54.4 1.5 -51.7
    endloop
  endfacet
  facet normal -1 0 0
    outer loop
      vertex 54.4 22.9 -45.95
      vertex 54.4 1.5 -37.4
      vertex 54.4 26.7 -37.4
    endloop
  endfacet
  facet normal 1 0 0
    outer loop
      vertex 55.9 21.1124 -38.6526
      vertex 55.9 26.7 -37.4
      vertex 55.9 21.16 -38.2
    endloop
  endfacet
  facet normal 1 0 0
    outer loop
      vertex 55.9 26.7 -37.4
      vertex 55.9 18.1453 -38.2
      vertex 55.9 21.16 -38.2
    endloop
  endfacet
  facet normal 1 0 0
    outer loop
      vertex 55.9 18.1453 -38.2
      vertex 55.9 18.0689 -38.6475
      vertex 55.9 18.1416 -38.235
    endloop
  endfacet
  facet normal 1 0 0
    outer loop
      vertex 55.9 18.1453 -38.2
      vertex 55.9 17.9676 -39.0538
      vertex 55.9 18.0689 -38.6475
    endloop
  endfacet
  facet normal 1 0 0
    outer loop
      vertex 55.9 18.1453 -38.2
      vertex 55.9 17.8382 -39.4521
      vertex 55.9 17.9676 -39.0538
    endloop
  endfacet
  facet normal 1 0 0
    outer loop
      vertex 55.9 18.1453 -38.2
      vertex 55.9 17.6813 -39.8404
      vertex 55.9 17.8382 -39.4521
    endloop
  endfacet
  facet normal 1 0 0
    outer loop
      vertex 55.9 18.1453 -38.2
      vertex 55.9 17.4977 -40.2168
      vertex 55.9 17.6813 -39.8404
    endloop
  endfacet
  facet normal 1 0 0
    outer loop
      vertex 55.9 18.1453 -38.2
      vertex 55.9 17.2883 -40.5795
      vertex 55.9 17.4977 -40.2168
    endloop
  endfacet
  facet normal 1 0 0
    outer loop
      vertex 55.9 18.1453 -38.2
      vertex 55.9 17.0541 -40.9267
      vertex 55.9 17.2883 -40.5795
    endloop
  endfacet
  facet normal 1 0 0
    outer loop
      vertex 55.9 18.1453 -38.2
      vertex 55.9 16.7963 -41.2567
      vertex 55.9 17.0541 -40.9267
    endloop
  endfacet
  facet normal 1 0 0
    outer loop
      vertex 55.9 18.1453 -38.2
      vertex 55.9 16.516 -41.568
      vertex 55.9 16.7963 -41.2567
    endloop
  endfacet
  facet normal 1 0 0
    outer loop
      vertex 55.9 18.1453 -38.2
      vertex 55.9 16.2148 -41.8589
      vertex 55.9 16.516 -41.568
    endloop
  endfacet
  facet normal 1 0 0
    outer loop
      vertex 55.9 18.1453 -38.2
      vertex 55.9 15.894 -42.1281
      vertex 55.9 16.2148 -41.8589
    endloop
  endfacet
  facet normal 1 0 0
    outer loop
      vertex 55.9 18.1453 -38.2
      vertex 55.9 15.5552 -42.3742
      vertex 55.9 15.894 -42.1281
    endloop
  endfacet
  facet normal 1 0 0
    outer loop
      vertex 55.9 18.1453 -38.2
      vertex 55.9 15.2 -42.5962
      vertex 55.9 15.5552 -42.3742
    endloop
  endfacet
  facet normal 1 0 0
    outer loop
      vertex 55.9 18.1453 -38.2
      vertex 55.9 14.8302 -42.7928
      vertex 55.9 15.2 -42.5962
    endloop
  endfacet
  facet normal 1 0 0
    outer loop
      vertex 55.9 18.1453 -38.2
      vertex 55.9 14.4476 -42.9631
      vertex 55.9 14.8302 -42.7928
    endloop
  endfacet
  facet normal 1 0 0
    outer loop
      vertex 55.9 18.1453 -38.2
      vertex 55.9 14.0541 -43.1063
      vertex 55.9 14.4476 -42.9631
    endloop
  endfacet
  facet normal 1 0 0
    outer loop
      vertex 55.9 18.1453 -38.2
      vertex 55.9 13.75 -43.1935
      vertex 55.9 14.0541 -43.1063
    endloop
  endfacet
  facet normal 1 0 0
    outer loop
      vertex 55.9 13.75 -43.1935
      vertex 55.9 10.65 -43.1935
      vertex 55.9 13.75 -46.2651
    endloop
  endfacet
  facet normal 1 0 0
    outer loop
      vertex 55.9 18.1453 -38.2
      vertex 55.9 10.65 -43.1935
      vertex 55.9 13.75 -43.1935
    endloop
  endfacet
  facet normal 1 0 0
    outer loop
      vertex 55.9 18.1453 -38.2
      vertex 55.9 10.3459 -43.1063
      vertex 55.9 10.65 -43.1935
    endloop
  endfacet
  facet normal 1 0 0
    outer loop
      vertex 55.9 18.1453 -38.2
      vertex 55.9 9.95236 -42.9631
      vertex 55.9 10.3459 -43.1063
    endloop
  endfacet
  facet normal 1 0 0
    outer loop
      vertex 55.9 18.1453 -38.2
      vertex 55.9 9.56977 -42.7928
      vertex 55.9 9.95236 -42.9631
    endloop
  endfacet
  facet normal 1 0 0
    outer loop
      vertex 55.9 18.1453 -38.2
      vertex 55.9 9.2 -42.5962
      vertex 55.9 9.56977 -42.7928
    endloop
  endfacet
  facet normal 1 0 0
    outer loop
      vertex 55.9 18.1453 -38.2
      vertex 55.9 8.84484 -42.3742
      vertex 55.9 9.2 -42.5962
    endloop
  endfacet
  facet normal 1 0 0
    outer loop
      vertex 55.9 18.1453 -38.2
      vertex 55.9 8.50603 -42.1281
      vertex 55.9 8.84484 -42.3742
    endloop
  endfacet
  facet normal 1 0 0
    outer loop
      vertex 55.9 18.1453 -38.2
      vertex 55.9 8.18522 -41.8589
      vertex 55.9 8.50603 -42.1281
    endloop
  endfacet
  facet normal 1 0 0
    outer loop
      vertex 55.9 18.1453 -38.2
      vertex 55.9 7.88396 -41.568
      vertex 55.9 8.18522 -41.8589
    endloop
  endfacet
  facet normal 1 0 0
    outer loop
      vertex 55.9 18.1453 -38.2
      vertex 55.9 7.60373 -41.2567
      vertex 55.9 7.88396 -41.568
    endloop
  endfacet
  facet normal 1 0 0
    outer loop
      vertex 55.9 18.1453 -38.2
      vertex 55.9 7.3459 -40.9267
      vertex 55.9 7.60373 -41.2567
    endloop
  endfacet
  facet normal 1 0 0
    outer loop
      vertex 55.9 18.1453 -38.2
      vertex 55.9 7.11171 -40.5795
      vertex 55.9 7.3459 -40.9267
    endloop
  endfacet
  facet normal 1 0 0
    outer loop
      vertex 55.9 18.1453 -38.2
      vertex 55.9 6.90232 -40.2168
      vertex 55.9 7.11171 -40.5795
    endloop
  endfacet
  facet normal 1 0 0
    outer loop
      vertex 55.9 18.1453 -38.2
      vertex 55.9 6.71873 -39.8404
      vertex 55.9 6.90232 -40.2168
    endloop
  endfacet
  facet normal 1 0 0
    outer loop
      vertex 55.9 18.1453 -38.2
      vertex 55.9 6.56184 -39.4521
      vertex 55.9 6.71873 -39.8404
    endloop
  endfacet
  facet normal 1 0 0
    outer loop
      vertex 55.9 18.1453 -38.2
      vertex 55.9 6.43243 -39.0538
      vertex 55.9 6.56184 -39.4521
    endloop
  endfacet
  facet normal 1 -0 0
    outer loop
      vertex 55.9 0 -37.4
      vertex 55.9 18.1453 -38.2
      vertex 55.9 26.7 -37.4
    endloop
  endfacet
  facet normal 1 0 0
    outer loop
      vertex 55.9 18.1453 -38.2
      vertex 55.9 6.25471 -38.2
      vertex 55.9 6.43243 -39.0538
    endloop
  endfacet
  facet normal 1 0 0
    outer loop
      vertex 55.9 6.43243 -39.0538
      vertex 55.9 6.25471 -38.2
      vertex 55.9 6.33111 -38.6475
    endloop
  endfacet
  facet normal 1 0 0
    outer loop
      vertex 55.9 6.33111 -38.6475
      vertex 55.9 6.25471 -38.2
      vertex 55.9 6.25839 -38.235
    endloop
  endfacet
  facet normal 1 0 0
    outer loop
      vertex 55.9 18.1453 -38.2
      vertex 55.9 0 -37.4
      vertex 55.9 6.25471 -38.2
    endloop
  endfacet
  facet normal 1 0 0
    outer loop
      vertex 55.9 6.25471 -38.2
      vertex 55.9 0 -37.4
      vertex 55.9 3.24002 -38.2
    endloop
  endfacet
  facet normal 1 -0 0
    outer loop
      vertex 55.9 26.7 -45.95
      vertex 55.9 28.2 -53.2
      vertex 55.9 28.2 -45.95
    endloop
  endfacet
  facet normal 1 0 0
    outer loop
      vertex 55.9 21.0033 -39.2712
      vertex 55.9 26.7 -37.4
      vertex 55.9 21.1124 -38.6526
    endloop
  endfacet
  facet normal 1 0 0
    outer loop
      vertex 55.9 20.8514 -39.8807
      vertex 55.9 26.7 -37.4
      vertex 55.9 21.0033 -39.2712
    endloop
  endfacet
  facet normal 1 0 0
    outer loop
      vertex 55.9 20.6572 -40.4782
      vertex 55.9 26.7 -37.4
      vertex 55.9 20.8514 -39.8807
    endloop
  endfacet
  facet normal 1 0 0
    outer loop
      vertex 55.9 26.7 -37.4
      vertex 55.9 20.6572 -40.4782
      vertex 55.9 26.7 -45.95
    endloop
  endfacet
  facet normal 1 -0 0
    outer loop
      vertex 55.9 20.4219 -41.0606
      vertex 55.9 26.7 -45.95
      vertex 55.9 20.6572 -40.4782
    endloop
  endfacet
  facet normal 1 -0 0
    outer loop
      vertex 55.9 20.1465 -41.6252
      vertex 55.9 26.7 -45.95
      vertex 55.9 20.4219 -41.0606
    endloop
  endfacet
  facet normal 1 -0 0
    outer loop
      vertex 55.9 19.8324 -42.1693
      vertex 55.9 26.7 -45.95
      vertex 55.9 20.1465 -41.6252
    endloop
  endfacet
  facet normal 1 -0 0
    outer loop
      vertex 55.9 19.4812 -42.6901
      vertex 55.9 26.7 -45.95
      vertex 55.9 19.8324 -42.1693
    endloop
  endfacet
  facet normal 1 -0 0
    outer loop
      vertex 55.9 19.0944 -43.1851
      vertex 55.9 26.7 -45.95
      vertex 55.9 19.4812 -42.6901
    endloop
  endfacet
  facet normal 1 -0 0
    outer loop
      vertex 55.9 18.6741 -43.6519
      vertex 55.9 26.7 -45.95
      vertex 55.9 19.0944 -43.1851
    endloop
  endfacet
  facet normal 1 -0 0
    outer loop
      vertex 55.9 18.2222 -44.0883
      vertex 55.9 26.7 -45.95
      vertex 55.9 18.6741 -43.6519
    endloop
  endfacet
  facet normal 1 -0 0
    outer loop
      vertex 55.9 17.741 -44.4921
      vertex 55.9 26.7 -45.95
      vertex 55.9 18.2222 -44.0883
    endloop
  endfacet
  facet normal 1 -0 0
    outer loop
      vertex 55.9 17.2327 -44.8613
      vertex 55.9 26.7 -45.95
      vertex 55.9 17.741 -44.4921
    endloop
  endfacet
  facet normal 1 0 0
    outer loop
      vertex 55.9 26.7 -45.95
      vertex 55.9 17.2327 -44.8613
      vertex 55.9 28.2 -53.2
    endloop
  endfacet
  facet normal 1 -0 0
    outer loop
      vertex 55.9 16.7 -45.1942
      vertex 55.9 28.2 -53.2
      vertex 55.9 17.2327 -44.8613
    endloop
  endfacet
  facet normal 1 -0 0
    outer loop
      vertex 55.9 16.1453 -45.4891
      vertex 55.9 28.2 -53.2
      vertex 55.9 16.7 -45.1942
    endloop
  endfacet
  facet normal 1 -0 0
    outer loop
      vertex 55.9 15.5715 -45.7447
      vertex 55.9 28.2 -53.2
      vertex 55.9 16.1453 -45.4891
    endloop
  endfacet
  facet normal 1 -0 0
    outer loop
      vertex 55.9 14.9812 -45.9595
      vertex 55.9 28.2 -53.2
      vertex 55.9 15.5715 -45.7447
    endloop
  endfacet
  facet normal 1 -0 0
    outer loop
      vertex 55.9 14.3773 -46.1327
      vertex 55.9 28.2 -53.2
      vertex 55.9 14.9812 -45.9595
    endloop
  endfacet
  facet normal 1 -0 0
    outer loop
      vertex 55.9 13.7628 -46.2633
      vertex 55.9 28.2 -53.2
      vertex 55.9 14.3773 -46.1327
    endloop
  endfacet
  facet normal 1 -0 0
    outer loop
      vertex 55.9 13.75 -46.2651
      vertex 55.9 28.2 -53.2
      vertex 55.9 13.7628 -46.2633
    endloop
  endfacet
  facet normal 1 0 0
    outer loop
      vertex 55.9 10.65 -46.2651
      vertex 55.9 13.75 -46.2651
      vertex 55.9 10.65 -43.1935
    endloop
  endfacet
  facet normal 1 0 0
    outer loop
      vertex 55.9 0 -53.2
      vertex 55.9 13.75 -46.2651
      vertex 55.9 10.65 -46.2651
    endloop
  endfacet
  facet normal 1 0 0
    outer loop
      vertex 55.9 0 -53.2
      vertex 55.9 10.65 -46.2651
      vertex 55.9 10.6372 -46.2633
    endloop
  endfacet
  facet normal 1 0 0
    outer loop
      vertex 55.9 0 -53.2
      vertex 55.9 10.6372 -46.2633
      vertex 55.9 10.0227 -46.1327
    endloop
  endfacet
  facet normal 1 0 0
    outer loop
      vertex 55.9 0 -53.2
      vertex 55.9 10.0227 -46.1327
      vertex 55.9 9.41885 -45.9595
    endloop
  endfacet
  facet normal 1 0 0
    outer loop
      vertex 55.9 0 -53.2
      vertex 55.9 9.41885 -45.9595
      vertex 55.9 8.82854 -45.7447
    endloop
  endfacet
  facet normal 1 0 0
    outer loop
      vertex 55.9 0 -37.4
      vertex 55.9 3.28759 -38.6526
      vertex 55.9 3.24002 -38.2
    endloop
  endfacet
  facet normal 1 0 0
    outer loop
      vertex 55.9 0 -37.4
      vertex 55.9 3.39667 -39.2712
      vertex 55.9 3.28759 -38.6526
    endloop
  endfacet
  facet normal 1 0 0
    outer loop
      vertex 55.9 0 -37.4
      vertex 55.9 3.54865 -39.8807
      vertex 55.9 3.39667 -39.2712
    endloop
  endfacet
  facet normal 1 0 0
    outer loop
      vertex 55.9 0 -37.4
      vertex 55.9 3.74277 -40.4782
      vertex 55.9 3.54865 -39.8807
    endloop
  endfacet
  facet normal 1 0 0
    outer loop
      vertex 55.9 0 -37.4
      vertex 55.9 3.97809 -41.0606
      vertex 55.9 3.74277 -40.4782
    endloop
  endfacet
  facet normal 1 0 0
    outer loop
      vertex 55.9 0 -37.4
      vertex 55.9 4.25347 -41.6252
      vertex 55.9 3.97809 -41.0606
    endloop
  endfacet
  facet normal 1 0 0
    outer loop
      vertex 55.9 0 -53.2
      vertex 55.9 4.25347 -41.6252
      vertex 55.9 0 -37.4
    endloop
  endfacet
  facet normal 1 0 0
    outer loop
      vertex 55.9 4.25347 -41.6252
      vertex 55.9 0 -53.2
      vertex 55.9 4.56757 -42.1693
    endloop
  endfacet
  facet normal 1 0 0
    outer loop
      vertex 55.9 4.56757 -42.1693
      vertex 55.9 0 -53.2
      vertex 55.9 4.91885 -42.6901
    endloop
  endfacet
  facet normal 1 0 0
    outer loop
      vertex 55.9 4.91885 -42.6901
      vertex 55.9 0 -53.2
      vertex 55.9 5.3056 -43.1851
    endloop
  endfacet
  facet normal 1 0 0
    outer loop
      vertex 55.9 13.75 -46.2651
      vertex 55.9 0 -53.2
      vertex 55.9 28.2 -53.2
    endloop
  endfacet
  facet normal 1 0 0
    outer loop
      vertex 55.9 8.25466 -45.4891
      vertex 55.9 0 -53.2
      vertex 55.9 8.82854 -45.7447
    endloop
  endfacet
  facet normal 1 0 0
    outer loop
      vertex 55.9 7.7 -45.1942
      vertex 55.9 0 -53.2
      vertex 55.9 8.25466 -45.4891
    endloop
  endfacet
  facet normal 1 0 0
    outer loop
      vertex 55.9 7.16726 -44.8613
      vertex 55.9 0 -53.2
      vertex 55.9 7.7 -45.1942
    endloop
  endfacet
  facet normal 1 0 0
    outer loop
      vertex 55.9 6.65905 -44.4921
      vertex 55.9 0 -53.2
      vertex 55.9 7.16726 -44.8613
    endloop
  endfacet
  facet normal 1 0 0
    outer loop
      vertex 55.9 6.17782 -44.0883
      vertex 55.9 0 -53.2
      vertex 55.9 6.65905 -44.4921
    endloop
  endfacet
  facet normal 1 0 0
    outer loop
      vertex 55.9 5.72594 -43.6519
      vertex 55.9 0 -53.2
      vertex 55.9 6.17782 -44.0883
    endloop
  endfacet
  facet normal 1 0 0
    outer loop
      vertex 55.9 5.3056 -43.1851
      vertex 55.9 0 -53.2
      vertex 55.9 5.72594 -43.6519
    endloop
  endfacet
  facet normal 0 1 0
    outer loop
      vertex 54.4 1.5 -37.4
      vertex 16 1.5 -45.95
      vertex 16 1.5 -37.4
    endloop
  endfacet
  facet normal 0 1 -0
    outer loop
      vertex 54.4 1.5 -51.7
      vertex 16 1.5 -45.95
      vertex 54.4 1.5 -37.4
    endloop
  endfacet
  facet normal 0 1 0
    outer loop
      vertex 16 1.5 -45.95
      vertex 54.4 1.5 -51.7
      vertex 16 1.5 -51.7
    endloop
  endfacet
  facet normal 0 1 -0
    outer loop
      vertex 16 1.5 -37.4
      vertex 1.5 1.5 -21.8
      vertex 16 1.5 -21.8
    endloop
  endfacet
  facet normal 0 1 0
    outer loop
      vertex 14.5 1.5 -45.95
      vertex 16 1.5 -37.4
      vertex 16 1.5 -45.95
    endloop
  endfacet
  facet normal 0 1 0
    outer loop
      vertex 1.5 1.5 -51.7
      vertex 16 1.5 -37.4
      vertex 14.5 1.5 -45.95
    endloop
  endfacet
  facet normal 0 1 0
    outer loop
      vertex 1.5 1.5 -51.7
      vertex 14.5 1.5 -45.95
      vertex 14.5 1.5 -51.7
    endloop
  endfacet
  facet normal 0 1 0
    outer loop
      vertex 16 1.5 -37.4
      vertex 1.5 1.5 -51.7
      vertex 1.5 1.5 -21.8
    endloop
  endfacet
  facet normal 0 -1 0
    outer loop
      vertex 48.65 22.9 -51.7
      vertex 54.4 22.9 -45.95
      vertex 48.65 22.9 -45.95
    endloop
  endfacet
  facet normal 0 -1 -0
    outer loop
      vertex 54.4 22.9 -45.95
      vertex 48.65 22.9 -51.7
      vertex 54.4 22.9 -51.7
    endloop
  endfacet
  facet normal 0 -1 0
    outer loop
      vertex 16 22.9 -51.7
      vertex 21.75 22.9 -45.95
      vertex 16 22.9 -45.95
    endloop
  endfacet
  facet normal 0 -1 -0
    outer loop
      vertex 21.75 22.9 -45.95
      vertex 16 22.9 -51.7
      vertex 21.75 22.9 -51.7
    endloop
  endfacet
  facet normal -0 0 1
    outer loop
      vertex 48.65 26.7 -51.7
      vertex 54.4 24.9 -51.7
      vertex 54.4 26.7 -51.7
    endloop
  endfacet
  facet normal 0 0 1
    outer loop
      vertex 48.65 26.7 -51.7
      vertex 48.65 24.9 -51.7
      vertex 54.4 24.9 -51.7
    endloop
  endfacet
  facet normal 0 0 1
    outer loop
      vertex 21.75 24.9 -51.7
      vertex 48.65 24.9 -51.7
      vertex 48.65 26.7 -51.7
    endloop
  endfacet
  facet normal 0 0 1
    outer loop
      vertex 21.75 24.9 -51.7
      vertex 48.65 26.7 -51.7
      vertex 21.75 26.7 -51.7
    endloop
  endfacet
  facet normal -0 0 1
    outer loop
      vertex 48.65 22.9 -51.7
      vertex 54.4 1.5 -51.7
      vertex 54.4 22.9 -51.7
    endloop
  endfacet
  facet normal 0 0 1
    outer loop
      vertex 48.65 24.9 -51.7
      vertex 21.75 24.9 -51.7
      vertex 48.65 22.9 -51.7
    endloop
  endfacet
  facet normal 0 0 1
    outer loop
      vertex 21.75 22.9 -51.7
      vertex 48.65 22.9 -51.7
      vertex 21.75 24.9 -51.7
    endloop
  endfacet
  facet normal 0 0 1
    outer loop
      vertex 48.65 22.9 -51.7
      vertex 21.75 22.9 -51.7
      vertex 54.4 1.5 -51.7
    endloop
  endfacet
  facet normal 0 0 1
    outer loop
      vertex 16 1.5 -51.7
      vertex 21.75 22.9 -51.7
      vertex 16 22.9 -51.7
    endloop
  endfacet
  facet normal 0 0 1
    outer loop
      vertex 21.75 22.9 -51.7
      vertex 16 1.5 -51.7
      vertex 54.4 1.5 -51.7
    endloop
  endfacet
  facet normal -0 0 1
    outer loop
      vertex 16 26.7 -51.7
      vertex 21.75 24.9 -51.7
      vertex 21.75 26.7 -51.7
    endloop
  endfacet
  facet normal 0 0 1
    outer loop
      vertex 21.75 24.9 -51.7
      vertex 16 26.7 -51.7
      vertex 16 24.9 -51.7
    endloop
  endfacet
  facet normal 1 0 0
    outer loop
      vertex 21.75 26.7 -51.7
      vertex 21.75 28.2 -45.95
      vertex 21.75 26.7 -45.95
    endloop
  endfacet
  facet normal 1 0 0
    outer loop
      vertex 21.75 28.2 -45.95
      vertex 21.75 26.7 -51.7
      vertex 21.75 28.2 -53.2
    endloop
  endfacet
  facet normal 1 0 0
    outer loop
      vertex 21.75 28.2 -53.2
      vertex 21.75 26.7 -51.7
      vertex 21.75 26.7 -53.2
    endloop
  endfacet
  facet normal 1 -0 0
    outer loop
      vertex 21.75 22.9 -45.95
      vertex 21.75 24.9 -51.7
      vertex 21.75 24.9 -45.95
    endloop
  endfacet
  facet normal 1 0 0
    outer loop
      vertex 21.75 24.9 -51.7
      vertex 21.75 22.9 -45.95
      vertex 21.75 22.9 -51.7
    endloop
  endfacet
  facet normal 0 1 -0
    outer loop
      vertex 55.9 28.2 -53.2
      vertex 48.65 28.2 -45.95
      vertex 55.9 28.2 -45.95
    endloop
  endfacet
  facet normal 0 1 0
    outer loop
      vertex 48.65 28.2 -45.95
      vertex 55.9 28.2 -53.2
      vertex 48.65 28.2 -53.2
    endloop
  endfacet
  facet normal 0 1 -0
    outer loop
      vertex 21.75 28.2 -53.2
      vertex 14.5 28.2 -45.95
      vertex 21.75 28.2 -45.95
    endloop
  endfacet
  facet normal 0 1 0
    outer loop
      vertex 14.5 28.2 -45.95
      vertex 21.75 28.2 -53.2
      vertex 14.5 28.2 -53.2
    endloop
  endfacet
  facet normal -1 0 0
    outer loop
      vertex 48.65 26.7 -51.7
      vertex 48.65 28.2 -53.2
      vertex 48.65 26.7 -53.2
    endloop
  endfacet
  facet normal -1 0 0
    outer loop
      vertex 48.65 28.2 -53.2
      vertex 48.65 26.7 -51.7
      vertex 48.65 28.2 -45.95
    endloop
  endfacet
  facet normal -1 -0 0
    outer loop
      vertex 48.65 28.2 -45.95
      vertex 48.65 26.7 -51.7
      vertex 48.65 26.7 -45.95
    endloop
  endfacet
  facet normal -1 0 0
    outer loop
      vertex 48.65 22.9 -51.7
      vertex 48.65 24.9 -45.95
      vertex 48.65 24.9 -51.7
    endloop
  endfacet
  facet normal -1 -0 0
    outer loop
      vertex 48.65 24.9 -45.95
      vertex 48.65 22.9 -51.7
      vertex 48.65 22.9 -45.95
    endloop
  endfacet
  facet normal 0 1 -0
    outer loop
      vertex 48.65 26.7 -53.2
      vertex 21.75 26.7 -51.7
      vertex 48.65 26.7 -51.7
    endloop
  endfacet
  facet normal 0 1 0
    outer loop
      vertex 21.75 26.7 -51.7
      vertex 48.65 26.7 -53.2
      vertex 21.75 26.7 -53.2
    endloop
  endfacet
  facet normal 0 0 -1
    outer loop
      vertex 55.9 0 -53.2
      vertex 48.65 26.7 -53.2
      vertex 55.9 28.2 -53.2
    endloop
  endfacet
  facet normal 0 0 -1
    outer loop
      vertex 55.9 0 -53.2
      vertex 21.75 26.7 -53.2
      vertex 48.65 26.7 -53.2
    endloop
  endfacet
  facet normal 0 0 -1
    outer loop
      vertex 21.75 26.7 -53.2
      vertex 14.5 26.7 -53.2
      vertex 21.75 28.2 -53.2
    endloop
  endfacet
  facet normal 0 0 -1
    outer loop
      vertex 0 0 -53.2
      vertex 21.75 26.7 -53.2
      vertex 55.9 0 -53.2
    endloop
  endfacet
  facet normal -0 0 -1
    outer loop
      vertex 21.75 26.7 -53.2
      vertex 0 0 -53.2
      vertex 14.5 26.7 -53.2
    endloop
  endfacet
  facet normal -0 0 -1
    outer loop
      vertex 14.5 26.7 -53.2
      vertex 0 0 -53.2
      vertex 0 26.7 -53.2
    endloop
  endfacet
  facet normal -0 0 -1
    outer loop
      vertex 55.9 28.2 -53.2
      vertex 48.65 26.7 -53.2
      vertex 48.65 28.2 -53.2
    endloop
  endfacet
  facet normal -0 0 -1
    outer loop
      vertex 21.75 28.2 -53.2
      vertex 14.5 26.7 -53.2
      vertex 14.5 28.2 -53.2
    endloop
  endfacet
  facet normal 0 0 1
    outer loop
      vertex 55.9 28.2 -45.95
      vertex 54.4 26.7 -45.95
      vertex 55.9 26.7 -45.95
    endloop
  endfacet
  facet normal -0 0 1
    outer loop
      vertex 48.65 28.2 -45.95
      vertex 54.4 26.7 -45.95
      vertex 55.9 28.2 -45.95
    endloop
  endfacet
  facet normal 0 0 1
    outer loop
      vertex 54.4 26.7 -45.95
      vertex 48.65 28.2 -45.95
      vertex 48.65 26.7 -45.95
    endloop
  endfacet
  facet normal 0 0 1
    outer loop
      vertex 21.75 28.2 -45.95
      vertex 16 26.7 -45.95
      vertex 21.75 26.7 -45.95
    endloop
  endfacet
  facet normal -0 0 1
    outer loop
      vertex 14.5 28.2 -45.95
      vertex 16 26.7 -45.95
      vertex 21.75 28.2 -45.95
    endloop
  endfacet
  facet normal 0 0 1
    outer loop
      vertex 16 26.7 -45.95
      vertex 14.5 28.2 -45.95
      vertex 14.5 26.7 -45.95
    endloop
  endfacet
  facet normal -0 0 1
    outer loop
      vertex 16 24.9 -45.95
      vertex 21.75 22.9 -45.95
      vertex 21.75 24.9 -45.95
    endloop
  endfacet
  facet normal 0 0 1
    outer loop
      vertex 21.75 22.9 -45.95
      vertex 16 24.9 -45.95
      vertex 16 22.9 -45.95
    endloop
  endfacet
  facet normal -0 0 1
    outer loop
      vertex 48.65 24.9 -45.95
      vertex 54.4 22.9 -45.95
      vertex 54.4 24.9 -45.95
    endloop
  endfacet
  facet normal 0 0 1
    outer loop
      vertex 54.4 22.9 -45.95
      vertex 48.65 24.9 -45.95
      vertex 48.65 22.9 -45.95
    endloop
  endfacet
  facet normal 0 1 -0
    outer loop
      vertex 16 26.7 -45.95
      vertex 14.5 26.7 -21.8
      vertex 16 26.7 -21.8
    endloop
  endfacet
  facet normal 0 1 0
    outer loop
      vertex 14.5 26.7 -21.8
      vertex 16 26.7 -45.95
      vertex 14.5 26.7 -45.95
    endloop
  endfacet
  facet normal 0 1 -0
    outer loop
      vertex 55.9 26.7 -45.95
      vertex 54.4 26.7 -37.4
      vertex 55.9 26.7 -37.4
    endloop
  endfacet
  facet normal 0 1 0
    outer loop
      vertex 54.4 26.7 -37.4
      vertex 55.9 26.7 -45.95
      vertex 54.4 26.7 -45.95
    endloop
  endfacet
  facet normal 0 1 -0
    outer loop
      vertex 21.75 24.9 -51.7
      vertex 16 24.9 -45.95
      vertex 21.75 24.9 -45.95
    endloop
  endfacet
  facet normal 0 1 0
    outer loop
      vertex 16 24.9 -45.95
      vertex 21.75 24.9 -51.7
      vertex 16 24.9 -51.7
    endloop
  endfacet
  facet normal 0 1 -0
    outer loop
      vertex 54.4 24.9 -51.7
      vertex 48.65 24.9 -45.95
      vertex 54.4 24.9 -45.95
    endloop
  endfacet
  facet normal 0 1 0
    outer loop
      vertex 48.65 24.9 -45.95
      vertex 54.4 24.9 -51.7
      vertex 48.65 24.9 -51.7
    endloop
  endfacet
  facet normal 0 -1 0
    outer loop
      vertex 48.65 26.7 -51.7
      vertex 54.4 26.7 -45.95
      vertex 48.65 26.7 -45.95
    endloop
  endfacet
  facet normal 0 -1 -0
    outer loop
      vertex 54.4 26.7 -45.95
      vertex 48.65 26.7 -51.7
      vertex 54.4 26.7 -51.7
    endloop
  endfacet
  facet normal 0 -1 0
    outer loop
      vertex 16 26.7 -51.7
      vertex 21.75 26.7 -45.95
      vertex 16 26.7 -45.95
    endloop
  endfacet
  facet normal 0 -1 -0
    outer loop
      vertex 21.75 26.7 -45.95
      vertex 16 26.7 -51.7
      vertex 21.75 26.7 -51.7
    endloop
  endfacet
  facet normal 0 -1 0
    outer loop
      vertex 14.5 22.9 -45.95
      vertex 16 22.9 -21.8
      vertex 14.5 22.9 -21.8
    endloop
  endfacet
  facet normal 0 -1 -0
    outer loop
      vertex 16 22.9 -21.8
      vertex 14.5 22.9 -45.95
      vertex 16 22.9 -45.95
    endloop
  endfacet
  facet normal -0 0 1
    outer loop
      vertex 14.5 22.9 -45.95
      vertex 16 14.65 -45.95
      vertex 16 22.9 -45.95
    endloop
  endfacet
  facet normal 0 0 1
    outer loop
      vertex 16 14.65 -45.95
      vertex 14.5 22.9 -45.95
      vertex 14.5 14.65 -45.95
    endloop
  endfacet
  facet normal -0 0 1
    outer loop
      vertex 14.5 9.75 -45.95
      vertex 16 1.5 -45.95
      vertex 16 9.75 -45.95
    endloop
  endfacet
  facet normal 0 0 1
    outer loop
      vertex 16 1.5 -45.95
      vertex 14.5 9.75 -45.95
      vertex 14.5 1.5 -45.95
    endloop
  endfacet
  facet normal 0 0 1
    outer loop
      vertex 14.5 26.7 -21.8
      vertex 1.5 25.2 -21.8
      vertex 14.5 25.2 -21.8
    endloop
  endfacet
  facet normal 0 0 1
    outer loop
      vertex 1.5 25.2 -21.8
      vertex 0 26.7 -21.8
      vertex 1.5 1.5 -21.8
    endloop
  endfacet
  facet normal -0 0 1
    outer loop
      vertex 0 26.7 -21.8
      vertex 1.5 25.2 -21.8
      vertex 14.5 26.7 -21.8
    endloop
  endfacet
  facet normal 0 0 1
    outer loop
      vertex 14.5 25.2 -21.8
      vertex 16 26.7 -21.8
      vertex 14.5 26.7 -21.8
    endloop
  endfacet
  facet normal 0 0 1
    outer loop
      vertex 16 26.7 -21.8
      vertex 14.5 25.2 -21.8
      vertex 16 22.9 -21.8
    endloop
  endfacet
  facet normal 0 0 1
    outer loop
      vertex 16 22.9 -21.8
      vertex 14.5 25.2 -21.8
      vertex 14.5 22.9 -21.8
    endloop
  endfacet
  facet normal -0 0 1
    outer loop
      vertex 1.5 1.5 -21.8
      vertex 16 0 -21.8
      vertex 16 1.5 -21.8
    endloop
  endfacet
  facet normal 0 0 1
    outer loop
      vertex 1.5 1.5 -21.8
      vertex 0 0 -21.8
      vertex 16 0 -21.8
    endloop
  endfacet
  facet normal 0 0 1
    outer loop
      vertex 0 0 -21.8
      vertex 1.5 1.5 -21.8
      vertex 0 26.7 -21.8
    endloop
  endfacet
  facet normal 0 -1 0
    outer loop
      vertex 0 0 -21.8
      vertex 16 0 -37.4
      vertex 16 0 -21.8
    endloop
  endfacet
  facet normal 0 -1 0
    outer loop
      vertex 0 0 -53.2
      vertex 16 0 -37.4
      vertex 0 0 -21.8
    endloop
  endfacet
  facet normal 0 -1 0
    outer loop
      vertex 55.9 0 -53.2
      vertex 16 0 -37.4
      vertex 0 0 -53.2
    endloop
  endfacet
  facet normal 0 -1 0
    outer loop
      vertex 16 0 -37.4
      vertex 55.9 0 -53.2
      vertex 55.9 0 -37.4
    endloop
  endfacet
  facet normal 1 -0 0
    outer loop
      vertex 1.5 1.5 -21.8
      vertex 1.5 25.2 -51.7
      vertex 1.5 25.2 -21.8
    endloop
  endfacet
  facet normal 1 0 0
    outer loop
      vertex 1.5 25.2 -51.7
      vertex 1.5 1.5 -21.8
      vertex 1.5 1.5 -51.7
    endloop
  endfacet
  facet normal 0 -1 0
    outer loop
      vertex 1.5 25.2 -51.7
      vertex 14.5 25.2 -21.8
      vertex 1.5 25.2 -21.8
    endloop
  endfacet
  facet normal 0 -1 -0
    outer loop
      vertex 14.5 25.2 -21.8
      vertex 1.5 25.2 -51.7
      vertex 14.5 25.2 -51.7
    endloop
  endfacet
  facet normal -0 0 1
    outer loop
      vertex 1.5 25.2 -51.7
      vertex 14.5 1.5 -51.7
      vertex 14.5 25.2 -51.7
    endloop
  endfacet
  facet normal 0 0 1
    outer loop
      vertex 14.5 1.5 -51.7
      vertex 1.5 25.2 -51.7
      vertex 1.5 1.5 -51.7
    endloop
  endfacet
  facet normal 0 1 -0
    outer loop
      vertex 14.5 26.7 -45.95
      vertex 0 26.7 -21.8
      vertex 14.5 26.7 -21.8
    endloop
  endfacet
  facet normal 0 1 0
    outer loop
      vertex 0 26.7 -53.2
      vertex 14.5 26.7 -45.95
      vertex 14.5 26.7 -53.2
    endloop
  endfacet
  facet normal 0 1 0
    outer loop
      vertex 14.5 26.7 -45.95
      vertex 0 26.7 -53.2
      vertex 0 26.7 -21.8
    endloop
  endfacet
  facet normal -1 0 0
    outer loop
      vertex 0 0 -53.2
      vertex 0 26.7 -21.8
      vertex 0 26.7 -53.2
    endloop
  endfacet
  facet normal -1 -0 0
    outer loop
      vertex 0 26.7 -21.8
      vertex 0 0 -53.2
      vertex 0 0 -21.8
    endloop
  endfacet
  facet normal 0 0 1
    outer loop
      vertex 54.4 1.5 -37.4
      vertex 55.9 26.7 -37.4
      vertex 54.4 26.7 -37.4
    endloop
  endfacet
  facet normal 0 0 1
    outer loop
      vertex 55.9 26.7 -37.4
      vertex 54.4 1.5 -37.4
      vertex 55.9 0 -37.4
    endloop
  endfacet
  facet normal 0 0 1
    outer loop
      vertex 16 0 -37.4
      vertex 54.4 1.5 -37.4
      vertex 16 1.5 -37.4
    endloop
  endfacet
  facet normal 0 0 1
    outer loop
      vertex 54.4 1.5 -37.4
      vertex 16 0 -37.4
      vertex 55.9 0 -37.4
    endloop
  endfacet
endsolid OpenSCAD_Model
